<?xml version="1.0" encoding="UTF-8" standalone="no"?>
<!DOCTYPE svg PUBLIC "-//W3C//DTD SVG 1.1//EN"
 "http://www.w3.org/Graphics/SVG/1.1/DTD/svg11.dtd">
<!-- Generated by graphviz version 7.0.6 (20230106.0513)
 -->
<!-- Title: G Pages: 1 -->
<svg width="167pt" height="40pt"
 viewBox="0.00 0.00 167.00 40.00" xmlns="http://www.w3.org/2000/svg" xmlns:xlink="http://www.w3.org/1999/xlink">
<g id="graph0" class="graph" transform="scale(1 1) rotate(0) translate(4 36)">
<title>G</title>
<polygon fill="white" stroke="none" points="-4,4 -4,-36 163,-36 163,4 -4,4"/>
<!-- node4379388416 -->
<g id="node1" class="node">
<title>node4379388416</title>
<polygon fill="none" stroke="black" stroke-width="0.5" points="159,-32 0,-32 0,0 159,0 159,-32"/>
<polygon fill="#fefecd" stroke="none" points="1.5,-19 1.5,-31 20.5,-31 20.5,-19 1.5,-19"/>
<polyline fill="none" stroke="black" points="1.5,-19 20.5,-19 20.5,-31"/>
<text text-anchor="start" x="8" y="-22.8" font-family="Helvetica,sans-Serif" font-size="9.00" fill="#444443">0</text>
<polygon fill="#fefecd" stroke="none" points="20.5,-19 20.5,-31 55.5,-31 55.5,-19 20.5,-19"/>
<polyline fill="none" stroke="black" points="20.5,-19 55.5,-19 55.5,-31"/>
<text text-anchor="start" x="35" y="-22.8" font-family="Helvetica,sans-Serif" font-size="9.00" fill="#444443">1</text>
<polygon fill="#fefecd" stroke="none" points="55.5,-19 55.5,-31 87.5,-31 87.5,-19 55.5,-19"/>
<polyline fill="none" stroke="black" points="55.5,-19 87.5,-19 87.5,-31"/>
<text text-anchor="start" x="68.5" y="-22.8" font-family="Helvetica,sans-Serif" font-size="9.00" fill="#444443">2</text>
<polygon fill="#fefecd" stroke="none" points="87.5,-19 87.5,-31 158.5,-31 158.5,-19 87.5,-19"/>
<polyline fill="none" stroke="black" points="87.5,-19 158.5,-19"/>
<text text-anchor="start" x="120" y="-22.8" font-family="Helvetica,sans-Serif" font-size="9.00" fill="#444443">3</text>
<polygon fill="#fefecd" stroke="none" points="1.5,-1 1.5,-19 20.5,-19 20.5,-1 1.5,-1"/>
<polyline fill="none" stroke="black" points="20.5,-1 20.5,-19"/>
<text text-anchor="start" x="4.5" y="-7.2" font-family="Helvetica,sans-Serif" font-size="11.00" fill="#444443">&#39;hi&#39;</text>
<polygon fill="#fefecd" stroke="none" points="20.5,-1 20.5,-19 55.5,-19 55.5,-1 20.5,-1"/>
<polyline fill="none" stroke="black" points="55.5,-1 55.5,-19"/>
<text text-anchor="start" x="23.5" y="-7.2" font-family="Helvetica,sans-Serif" font-size="11.00" fill="#444443">&#39;mom&#39;</text>
<polygon fill="#fefecd" stroke="none" points="55.5,-1 55.5,-19 87.5,-19 87.5,-1 55.5,-1"/>
<polyline fill="none" stroke="black" points="87.5,-1 87.5,-19"/>
<text text-anchor="start" x="58.5" y="-7.2" font-family="Helvetica,sans-Serif" font-size="11.00" fill="#444443">{3, 4}</text>
<polygon fill="#fefecd" stroke="none" points="87.5,-1 87.5,-19 158.5,-19 158.5,-1 87.5,-1"/>
<text text-anchor="start" x="89.5" y="-7.2" font-family="Helvetica,sans-Serif" font-size="11.00" fill="#444443">{&#39;parrt&#39;: &#39;user&#39;}</text>
</g>
</g>
</svg>
