<?xml version="1.0" encoding="UTF-8" standalone="no"?>
<!DOCTYPE svg PUBLIC "-//W3C//DTD SVG 1.1//EN"
 "http://www.w3.org/Graphics/SVG/1.1/DTD/svg11.dtd">
<!-- Generated by graphviz version 7.0.6 (20230106.0513)
 -->
<!-- Title: G Pages: 1 -->
<svg width="148pt" height="40pt"
 viewBox="0.00 0.00 148.00 40.00" xmlns="http://www.w3.org/2000/svg" xmlns:xlink="http://www.w3.org/1999/xlink">
<g id="graph0" class="graph" transform="scale(1 1) rotate(0) translate(4 36)">
<title>G</title>
<polygon fill="white" stroke="none" points="-4,4 -4,-36 144,-36 144,4 -4,4"/>
<!-- node4602345872 -->
<g id="node1" class="node">
<title>node4602345872</title>
<polygon fill="none" stroke="black" stroke-width="0.5" points="140,-32 0,-32 0,0 140,0 140,-32"/>
<polygon fill="#fefecd" stroke="none" points="1,-19 1,-31 73,-31 73,-19 1,-19"/>
<polyline fill="none" stroke="black" points="1,-19 73,-19 73,-31"/>
<text text-anchor="start" x="34" y="-22.8" font-family="Helvetica,sans-Serif" font-size="9.00" fill="#444443">0</text>
<polygon fill="#fefecd" stroke="none" points="73,-19 73,-31 139,-31 139,-19 73,-19"/>
<polyline fill="none" stroke="black" points="73,-19 139,-19"/>
<text text-anchor="start" x="103" y="-22.8" font-family="Helvetica,sans-Serif" font-size="9.00" fill="#444443">1</text>
<polygon fill="#fefecd" stroke="none" points="1,-1 1,-19 73,-19 73,-1 1,-1"/>
<polyline fill="none" stroke="black" points="73,-1 73,-19"/>
<text text-anchor="start" x="4" y="-7.2" font-family="Helvetica,sans-Serif" font-size="11.00" fill="#444443">(1, &#39;Alice&#39;, 22)</text>
<polygon fill="#fefecd" stroke="none" points="73,-1 73,-19 139,-19 139,-1 73,-1"/>
<text text-anchor="start" x="75" y="-7.2" font-family="Helvetica,sans-Serif" font-size="11.00" fill="#444443">(2, &#39;Bob&#39;, 35)</text>
</g>
</g>
</svg>
