<?xml version="1.0" encoding="UTF-8" standalone="no"?>
<!DOCTYPE svg PUBLIC "-//W3C//DTD SVG 1.1//EN"
 "http://www.w3.org/Graphics/SVG/1.1/DTD/svg11.dtd">
<!-- Generated by graphviz version 7.0.6 (20230106.0513)
 -->
<!-- Title: G Pages: 1 -->
<svg width="106pt" height="118pt"
 viewBox="0.00 0.00 106.00 118.00" xmlns="http://www.w3.org/2000/svg" xmlns:xlink="http://www.w3.org/1999/xlink">
<g id="graph0" class="graph" transform="scale(1 1) rotate(0) translate(4 114)">
<title>G</title>
<polygon fill="white" stroke="none" points="-4,4 -4,-114 102,-114 102,4 -4,4"/>
<!-- node4605507136 -->
<g id="node1" class="node">
<title>node4605507136</title>
<polygon fill="#cfe2d4" stroke="#444443" stroke-width="0.5" points="14,-80 0,-80 0,-30 14,-30 14,-80"/>
<polygon fill="#cfe2d4" stroke="none" points="1,-63 1,-79 13,-79 13,-63 1,-63"/>
<polyline fill="none" stroke="#444443" points="1,-63 13,-63"/>
<text text-anchor="start" x="4" y="-68.8" font-family="Helvetica,sans-Serif" font-size="9.00" fill="#444443">0</text>
<polygon fill="#cfe2d4" stroke="none" points="1,-47 1,-63 13,-63 13,-47 1,-47"/>
<polyline fill="none" stroke="#444443" points="1,-47 13,-47"/>
<text text-anchor="start" x="4" y="-52.8" font-family="Helvetica,sans-Serif" font-size="9.00" fill="#444443">1</text>
<polygon fill="#cfe2d4" stroke="none" points="1,-31 1,-47 13,-47 13,-31 1,-31"/>
<text text-anchor="start" x="4" y="-36.8" font-family="Helvetica,sans-Serif" font-size="9.00" fill="#444443">2</text>
</g>
<!-- node4602518016 -->
<g id="node2" class="node">
<title>node4602518016</title>
<polygon fill="none" stroke="black" stroke-width="0.5" points="92.5,-110 41.5,-110 41.5,-78 92.5,-78 92.5,-110"/>
<polygon fill="#fefecd" stroke="none" points="43,-97 43,-109 75,-109 75,-97 43,-97"/>
<polyline fill="none" stroke="black" points="43,-97 75,-97 75,-109"/>
<text text-anchor="start" x="56" y="-100.8" font-family="Helvetica,sans-Serif" font-size="9.00" fill="#444443">0</text>
<polygon fill="#fefecd" stroke="none" points="75,-97 75,-109 92,-109 92,-97 75,-97"/>
<polyline fill="none" stroke="black" points="75,-97 92,-97"/>
<text text-anchor="start" x="80.5" y="-100.8" font-family="Helvetica,sans-Serif" font-size="9.00" fill="#444443">1</text>
<polygon fill="#fefecd" stroke="none" points="43,-79 43,-97 75,-97 75,-79 43,-79"/>
<polyline fill="none" stroke="black" points="75,-79 75,-97"/>
<text text-anchor="start" x="46" y="-85.2" font-family="Helvetica,sans-Serif" font-size="11.00" fill="#444443">&#39;Alex&#39;</text>
<polygon fill="#fefecd" stroke="none" points="75,-79 75,-97 92,-97 92,-79 75,-79"/>
<text text-anchor="start" x="77" y="-85.2" font-family="Helvetica,sans-Serif" font-size="11.00" fill="#444443">10</text>
</g>
<!-- node4605507136&#45;&gt;node4602518016 -->
<g id="edge1" class="edge">
<title>node4605507136:0&#45;&gt;node4602518016:w</title>
<path fill="none" stroke="#444443" stroke-width="0.5" d="M14,-71C27.62,-71 25.43,-88.93 35.35,-93.13"/>
<polygon fill="#444443" stroke="#444443" stroke-width="0.5" points="35.07,-94.5 39.26,-93.86 35.58,-91.75 35.07,-94.5"/>
</g>
<!-- node4605459968 -->
<g id="node3" class="node">
<title>node4605459968</title>
<polygon fill="none" stroke="black" stroke-width="0.5" points="92,-71 42,-71 42,-39 92,-39 92,-71"/>
<polygon fill="#fefecd" stroke="none" points="43,-58 43,-70 74,-70 74,-58 43,-58"/>
<polyline fill="none" stroke="black" points="43,-58 74,-58 74,-70"/>
<text text-anchor="start" x="55.5" y="-61.8" font-family="Helvetica,sans-Serif" font-size="9.00" fill="#444443">0</text>
<polygon fill="#fefecd" stroke="none" points="74,-58 74,-70 91,-70 91,-58 74,-58"/>
<polyline fill="none" stroke="black" points="74,-58 91,-58"/>
<text text-anchor="start" x="79.5" y="-61.8" font-family="Helvetica,sans-Serif" font-size="9.00" fill="#444443">1</text>
<polygon fill="#fefecd" stroke="none" points="43,-40 43,-58 74,-58 74,-40 43,-40"/>
<polyline fill="none" stroke="black" points="74,-40 74,-58"/>
<text text-anchor="start" x="46" y="-46.2" font-family="Helvetica,sans-Serif" font-size="11.00" fill="#444443">&#39;Bob&#39;</text>
<polygon fill="#fefecd" stroke="none" points="74,-40 74,-58 91,-58 91,-40 74,-40"/>
<text text-anchor="start" x="76" y="-46.2" font-family="Helvetica,sans-Serif" font-size="11.00" fill="#444443">12</text>
</g>
<!-- node4605507136&#45;&gt;node4605459968 -->
<g id="edge2" class="edge">
<title>node4605507136:1&#45;&gt;node4605459968:w</title>
<path fill="none" stroke="#444443" stroke-width="0.5" d="M14,-55C24.31,-55 27.98,-55 36.42,-55"/>
<polygon fill="#444443" stroke="#444443" stroke-width="0.5" points="36.24,-56.4 40.24,-55 36.24,-53.6 36.24,-56.4"/>
</g>
<!-- node4605451072 -->
<g id="node4" class="node">
<title>node4605451072</title>
<polygon fill="none" stroke="black" stroke-width="0.5" points="98,-32 36,-32 36,0 98,0 98,-32"/>
<polygon fill="#fefecd" stroke="none" points="37,-19 37,-31 80,-31 80,-19 37,-19"/>
<polyline fill="none" stroke="black" points="37,-19 80,-19 80,-31"/>
<text text-anchor="start" x="55.5" y="-22.8" font-family="Helvetica,sans-Serif" font-size="9.00" fill="#444443">0</text>
<polygon fill="#fefecd" stroke="none" points="80,-19 80,-31 97,-31 97,-19 80,-19"/>
<polyline fill="none" stroke="black" points="80,-19 97,-19"/>
<text text-anchor="start" x="85.5" y="-22.8" font-family="Helvetica,sans-Serif" font-size="9.00" fill="#444443">1</text>
<polygon fill="#fefecd" stroke="none" points="37,-1 37,-19 80,-19 80,-1 37,-1"/>
<polyline fill="none" stroke="black" points="80,-1 80,-19"/>
<text text-anchor="start" x="40" y="-7.2" font-family="Helvetica,sans-Serif" font-size="11.00" fill="#444443">&#39;Clarke&#39;</text>
<polygon fill="#fefecd" stroke="none" points="80,-1 80,-19 97,-19 97,-1 80,-1"/>
<text text-anchor="start" x="82" y="-7.2" font-family="Helvetica,sans-Serif" font-size="11.00" fill="#444443">13</text>
</g>
<!-- node4605507136&#45;&gt;node4605451072 -->
<g id="edge3" class="edge">
<title>node4605507136:2&#45;&gt;node4605451072:w</title>
<path fill="none" stroke="#444443" stroke-width="0.5" d="M14,-39C26.38,-39 23.11,-21.39 31.57,-16.99"/>
<polygon fill="#444443" stroke="#444443" stroke-width="0.5" points="31.66,-18.4 35.26,-16.16 31.05,-15.67 31.66,-18.4"/>
</g>
</g>
</svg>
