<?xml version="1.0" encoding="UTF-8" standalone="no"?>
<!DOCTYPE svg PUBLIC "-//W3C//DTD SVG 1.1//EN"
 "http://www.w3.org/Graphics/SVG/1.1/DTD/svg11.dtd">
<!-- Generated by graphviz version 7.0.6 (20230106.0513)
 -->
<!-- Title: G Pages: 1 -->
<svg width="115pt" height="40pt"
 viewBox="0.00 0.00 115.00 40.00" xmlns="http://www.w3.org/2000/svg" xmlns:xlink="http://www.w3.org/1999/xlink">
<g id="graph0" class="graph" transform="scale(1 1) rotate(0) translate(4 36)">
<title>G</title>
<polygon fill="white" stroke="none" points="-4,4 -4,-36 111,-36 111,4 -4,4"/>
<!-- node4602497728 -->
<g id="node1" class="node">
<title>node4602497728</title>
<polygon fill="none" stroke="black" stroke-width="0.5" points="107,-32 0,-32 0,0 107,0 107,-32"/>
<polygon fill="#fefecd" stroke="none" points="1.5,-19 1.5,-31 20.5,-31 20.5,-19 1.5,-19"/>
<polyline fill="none" stroke="black" points="1.5,-19 20.5,-19 20.5,-31"/>
<text text-anchor="start" x="8" y="-22.8" font-family="Helvetica,sans-Serif" font-size="9.00" fill="#444443">0</text>
<polygon fill="#fefecd" stroke="none" points="20.5,-19 20.5,-31 39.5,-31 39.5,-19 20.5,-19"/>
<polyline fill="none" stroke="black" points="20.5,-19 39.5,-19 39.5,-31"/>
<text text-anchor="start" x="27" y="-22.8" font-family="Helvetica,sans-Serif" font-size="9.00" fill="#444443">1</text>
<polygon fill="#fefecd" stroke="none" points="39.5,-19 39.5,-31 56.5,-31 56.5,-19 39.5,-19"/>
<polyline fill="none" stroke="black" points="39.5,-19 56.5,-19 56.5,-31"/>
<text text-anchor="start" x="45" y="-22.8" font-family="Helvetica,sans-Serif" font-size="9.00" fill="#444443">2</text>
<polygon fill="#fefecd" stroke="none" points="56.5,-19 56.5,-31 75.5,-31 75.5,-19 56.5,-19"/>
<polyline fill="none" stroke="black" points="56.5,-19 75.5,-19 75.5,-31"/>
<text text-anchor="start" x="63" y="-22.8" font-family="Helvetica,sans-Serif" font-size="9.00" fill="#444443">3</text>
<polygon fill="#fefecd" stroke="none" points="75.5,-19 75.5,-31 92.5,-31 92.5,-19 75.5,-19"/>
<polyline fill="none" stroke="black" points="75.5,-19 92.5,-19 92.5,-31"/>
<text text-anchor="start" x="81" y="-22.8" font-family="Helvetica,sans-Serif" font-size="9.00" fill="#444443">4</text>
<polygon fill="#fefecd" stroke="none" points="92.5,-19 92.5,-31 106.5,-31 106.5,-19 92.5,-19"/>
<polyline fill="none" stroke="black" points="92.5,-19 106.5,-19"/>
<text text-anchor="start" x="96.5" y="-22.8" font-family="Helvetica,sans-Serif" font-size="9.00" fill="#444443">5</text>
<polygon fill="#fefecd" stroke="none" points="1.5,-1 1.5,-19 20.5,-19 20.5,-1 1.5,-1"/>
<polyline fill="none" stroke="black" points="20.5,-1 20.5,-19"/>
<text text-anchor="start" x="4.5" y="-7.2" font-family="Helvetica,sans-Serif" font-size="11.00" fill="#444443">&#39;B&#39;</text>
<polygon fill="#fefecd" stroke="none" points="20.5,-1 20.5,-19 39.5,-19 39.5,-1 20.5,-1"/>
<polyline fill="none" stroke="black" points="39.5,-1 39.5,-19"/>
<text text-anchor="start" x="23.5" y="-7.2" font-family="Helvetica,sans-Serif" font-size="11.00" fill="#444443">&#39;A&#39;</text>
<polygon fill="#fefecd" stroke="none" points="39.5,-1 39.5,-19 56.5,-19 56.5,-1 39.5,-1"/>
<polyline fill="none" stroke="black" points="56.5,-1 56.5,-19"/>
<text text-anchor="start" x="42.5" y="-7.2" font-family="Helvetica,sans-Serif" font-size="11.00" fill="#444443">&#39;b&#39;</text>
<polygon fill="#fefecd" stroke="none" points="56.5,-1 56.5,-19 75.5,-19 75.5,-1 56.5,-1"/>
<polyline fill="none" stroke="black" points="75.5,-1 75.5,-19"/>
<text text-anchor="start" x="59.5" y="-7.2" font-family="Helvetica,sans-Serif" font-size="11.00" fill="#444443">&#39;C&#39;</text>
<polygon fill="#fefecd" stroke="none" points="75.5,-1 75.5,-19 92.5,-19 92.5,-1 75.5,-1"/>
<polyline fill="none" stroke="black" points="92.5,-1 92.5,-19"/>
<text text-anchor="start" x="78.5" y="-7.2" font-family="Helvetica,sans-Serif" font-size="11.00" fill="#444443">&#39;a&#39;</text>
<polygon fill="#fefecd" stroke="none" points="92.5,-1 92.5,-19 106.5,-19 106.5,-1 92.5,-1"/>
<text text-anchor="start" x="94.5" y="-7.2" font-family="Helvetica,sans-Serif" font-size="11.00" fill="#444443">&#39;c&#39;</text>
</g>
</g>
</svg>
