<?xml version="1.0" encoding="UTF-8" standalone="no"?>
<!DOCTYPE svg PUBLIC "-//W3C//DTD SVG 1.1//EN"
 "http://www.w3.org/Graphics/SVG/1.1/DTD/svg11.dtd">
<!-- Generated by graphviz version 7.0.6 (20230106.0513)
 -->
<!-- Title: G Pages: 1 -->
<svg width="107pt" height="27pt"
 viewBox="0.00 0.00 107.00 27.00" xmlns="http://www.w3.org/2000/svg" xmlns:xlink="http://www.w3.org/1999/xlink">
<g id="graph0" class="graph" transform="scale(1 1) rotate(0) translate(4 23)">
<title>G</title>
<polygon fill="white" stroke="none" points="-4,4 -4,-23 103,-23 103,4 -4,4"/>
<!-- node4379315456 -->
<g id="node1" class="node">
<title>node4379315456</title>
<polygon fill="none" stroke="black" stroke-width="0.5" points="99,-19 0,-19 0,0 99,0 99,-19"/>
<polygon fill="#fefecd" stroke="none" points="1.5,-0.5 1.5,-17.5 16.5,-17.5 16.5,-0.5 1.5,-0.5"/>
<text text-anchor="start" x="4.5" y="-6.5" font-family="Helvetica,sans-Serif" font-size="10.00" fill="#444443">1.</text>
<polygon fill="#fefecd" stroke="none" points="16.5,-0.5 16.5,-17.5 31.5,-17.5 31.5,-0.5 16.5,-0.5"/>
<text text-anchor="start" x="19.5" y="-6.5" font-family="Helvetica,sans-Serif" font-size="10.00" fill="#444443">3.</text>
<polygon fill="#fefecd" stroke="none" points="31.5,-0.5 31.5,-17.5 46.5,-17.5 46.5,-0.5 31.5,-0.5"/>
<text text-anchor="start" x="34.5" y="-6.5" font-family="Helvetica,sans-Serif" font-size="10.00" fill="#444443">5.</text>
<polygon fill="#fefecd" stroke="none" points="46.5,-0.5 46.5,-17.5 68.5,-17.5 68.5,-0.5 46.5,-0.5"/>
<text text-anchor="start" x="49.5" y="-6.5" font-family="Helvetica,sans-Serif" font-size="10.00" fill="#444443">nan</text>
<polygon fill="#fefecd" stroke="none" points="68.5,-0.5 68.5,-17.5 83.5,-17.5 83.5,-0.5 68.5,-0.5"/>
<text text-anchor="start" x="71.5" y="-6.5" font-family="Helvetica,sans-Serif" font-size="10.00" fill="#444443">6.</text>
<polygon fill="#fefecd" stroke="none" points="83.5,-0.5 83.5,-17.5 98.5,-17.5 98.5,-0.5 83.5,-0.5"/>
<text text-anchor="start" x="86.5" y="-6.5" font-family="Helvetica,sans-Serif" font-size="10.00" fill="#444443">8.</text>
</g>
</g>
</svg>
