<?xml version="1.0" encoding="UTF-8" standalone="no"?>
<!DOCTYPE svg PUBLIC "-//W3C//DTD SVG 1.1//EN"
 "http://www.w3.org/Graphics/SVG/1.1/DTD/svg11.dtd">
<!-- Generated by graphviz version 7.0.6 (20230106.0513)
 -->
<!-- Title: G Pages: 1 -->
<svg width="58pt" height="72pt"
 viewBox="0.00 0.00 58.00 72.00" xmlns="http://www.w3.org/2000/svg" xmlns:xlink="http://www.w3.org/1999/xlink">
<g id="graph0" class="graph" transform="scale(1 1) rotate(0) translate(4 68)">
<title>G</title>
<polygon fill="white" stroke="none" points="-4,4 -4,-68 54,-68 54,4 -4,4"/>
<!-- node4605447424 -->
<g id="node1" class="node">
<title>node4605447424</title>
<polygon fill="none" stroke="black" stroke-width="0.5" points="50,-64 0,-64 0,0 50,0 50,-64"/>
<polygon fill="#fefecd" stroke="none" points="1,-49 1,-63 13,-63 13,-49 1,-49"/>
<polyline fill="none" stroke="black" points="13,-49 13,-63"/>
<text text-anchor="start" x="2" y="-53.2" font-family="Helvetica,sans-Serif" font-size="11.00" fill="#444443">0 </text>
<polygon fill="#fefecd" stroke="none" points="13,-49 13,-63 49,-63 49,-49 13,-49"/>
<text text-anchor="start" x="14" y="-53.2" font-family="Helvetica,sans-Serif" font-size="11.00" fill="#444443"> &lt;dict&gt;</text>
<polygon fill="#fefecd" stroke="none" points="1,-47 1,-49 49,-49 49,-47 1,-47"/>
<polygon fill="#fefecd" stroke="none" points="1,-33 1,-47 13,-47 13,-33 1,-33"/>
<polyline fill="none" stroke="black" points="13,-33 13,-47"/>
<text text-anchor="start" x="2" y="-37.2" font-family="Helvetica,sans-Serif" font-size="11.00" fill="#444443">1 </text>
<polygon fill="#fefecd" stroke="none" points="13,-33 13,-47 49,-47 49,-33 13,-33"/>
<text text-anchor="start" x="14" y="-37.2" font-family="Helvetica,sans-Serif" font-size="11.00" fill="#444443"> &lt;dict&gt;</text>
<polygon fill="#fefecd" stroke="none" points="1,-31 1,-33 49,-33 49,-31 1,-31"/>
<polygon fill="#fefecd" stroke="none" points="1,-17 1,-31 13,-31 13,-17 1,-17"/>
<polyline fill="none" stroke="black" points="13,-17 13,-31"/>
<text text-anchor="start" x="2" y="-21.2" font-family="Helvetica,sans-Serif" font-size="11.00" fill="#444443">2 </text>
<polygon fill="#fefecd" stroke="none" points="13,-17 13,-31 49,-31 49,-17 13,-17"/>
<text text-anchor="start" x="14" y="-21.2" font-family="Helvetica,sans-Serif" font-size="11.00" fill="#444443"> &lt;dict&gt;</text>
<polygon fill="#fefecd" stroke="none" points="1,-15 1,-17 49,-17 49,-15 1,-15"/>
<polygon fill="#fefecd" stroke="none" points="1,-1 1,-15 13,-15 13,-1 1,-1"/>
<polyline fill="none" stroke="black" points="13,-1 13,-15"/>
<text text-anchor="start" x="2" y="-5.2" font-family="Helvetica,sans-Serif" font-size="11.00" fill="#444443">3 </text>
<polygon fill="#fefecd" stroke="none" points="13,-1 13,-15 49,-15 49,-1 13,-1"/>
<text text-anchor="start" x="14" y="-5.2" font-family="Helvetica,sans-Serif" font-size="11.00" fill="#444443"> &lt;dict&gt;</text>
</g>
</g>
</svg>
