<?xml version="1.0" encoding="UTF-8" standalone="no"?>
<!DOCTYPE svg PUBLIC "-//W3C//DTD SVG 1.1//EN"
 "http://www.w3.org/Graphics/SVG/1.1/DTD/svg11.dtd">
<!-- Generated by graphviz version 7.0.6 (20230106.0513)
 -->
<!-- Title: G Pages: 1 -->
<svg width="133pt" height="40pt"
 viewBox="0.00 0.00 133.00 40.00" xmlns="http://www.w3.org/2000/svg" xmlns:xlink="http://www.w3.org/1999/xlink">
<g id="graph0" class="graph" transform="scale(1 1) rotate(0) translate(4 36)">
<title>G</title>
<polygon fill="white" stroke="none" points="-4,4 -4,-36 129,-36 129,4 -4,4"/>
<!-- node4605675648 -->
<g id="node1" class="node">
<title>node4605675648</title>
<polygon fill="none" stroke="black" stroke-width="0.5" points="125,-32 0,-32 0,0 125,0 125,-32"/>
<polygon fill="#fefecd" stroke="none" points="1.5,-19 1.5,-31 32.5,-31 32.5,-19 1.5,-19"/>
<polyline fill="none" stroke="black" points="1.5,-19 32.5,-19 32.5,-31"/>
<text text-anchor="start" x="14" y="-22.8" font-family="Helvetica,sans-Serif" font-size="9.00" fill="#444443">0</text>
<polygon fill="#fefecd" stroke="none" points="32.5,-19 32.5,-31 53.5,-31 53.5,-19 32.5,-19"/>
<polyline fill="none" stroke="black" points="32.5,-19 53.5,-19 53.5,-31"/>
<text text-anchor="start" x="40" y="-22.8" font-family="Helvetica,sans-Serif" font-size="9.00" fill="#444443">1</text>
<polygon fill="#fefecd" stroke="none" points="53.5,-19 53.5,-31 74.5,-31 74.5,-19 53.5,-19"/>
<polyline fill="none" stroke="black" points="53.5,-19 74.5,-19 74.5,-31"/>
<text text-anchor="start" x="61" y="-22.8" font-family="Helvetica,sans-Serif" font-size="9.00" fill="#444443">2</text>
<polygon fill="#fefecd" stroke="none" points="74.5,-19 74.5,-31 95.5,-31 95.5,-19 74.5,-19"/>
<polyline fill="none" stroke="black" points="74.5,-19 95.5,-19 95.5,-31"/>
<text text-anchor="start" x="82" y="-22.8" font-family="Helvetica,sans-Serif" font-size="9.00" fill="#444443">3</text>
<polygon fill="#fefecd" stroke="none" points="95.5,-19 95.5,-31 124.5,-31 124.5,-19 95.5,-19"/>
<polyline fill="none" stroke="black" points="95.5,-19 124.5,-19"/>
<text text-anchor="start" x="107" y="-22.8" font-family="Helvetica,sans-Serif" font-size="9.00" fill="#444443">4</text>
<polygon fill="#fefecd" stroke="none" points="1.5,-1 1.5,-19 32.5,-19 32.5,-1 1.5,-1"/>
<polyline fill="none" stroke="black" points="32.5,-1 32.5,-19"/>
<text text-anchor="start" x="4.5" y="-7.2" font-family="Helvetica,sans-Serif" font-size="11.00" fill="#444443">&#39;하나&#39;</text>
<polygon fill="#fefecd" stroke="none" points="32.5,-1 32.5,-19 53.5,-19 53.5,-1 32.5,-1"/>
<polyline fill="none" stroke="black" points="53.5,-1 53.5,-19"/>
<text text-anchor="start" x="35.5" y="-7.2" font-family="Helvetica,sans-Serif" font-size="11.00" fill="#444443">&#39;둘&#39;</text>
<polygon fill="#fefecd" stroke="none" points="53.5,-1 53.5,-19 74.5,-19 74.5,-1 53.5,-1"/>
<polyline fill="none" stroke="black" points="74.5,-1 74.5,-19"/>
<text text-anchor="start" x="56.5" y="-7.2" font-family="Helvetica,sans-Serif" font-size="11.00" fill="#444443">&#39;셋&#39;</text>
<polygon fill="#fefecd" stroke="none" points="74.5,-1 74.5,-19 95.5,-19 95.5,-1 74.5,-1"/>
<polyline fill="none" stroke="black" points="95.5,-1 95.5,-19"/>
<text text-anchor="start" x="77.5" y="-7.2" font-family="Helvetica,sans-Serif" font-size="11.00" fill="#444443">&#39;넷&#39;</text>
<polygon fill="#fefecd" stroke="none" points="95.5,-1 95.5,-19 124.5,-19 124.5,-1 95.5,-1"/>
<text text-anchor="start" x="97.5" y="-7.2" font-family="Helvetica,sans-Serif" font-size="11.00" fill="#444443">&#39;다섯&#39;</text>
</g>
</g>
</svg>
