<?xml version="1.0" encoding="UTF-8" standalone="no"?>
<!DOCTYPE svg PUBLIC "-//W3C//DTD SVG 1.1//EN"
 "http://www.w3.org/Graphics/SVG/1.1/DTD/svg11.dtd">
<!-- Generated by graphviz version 7.0.6 (20230106.0513)
 -->
<!-- Title: G Pages: 1 -->
<svg width="113pt" height="112pt"
 viewBox="0.00 0.00 113.00 112.00" xmlns="http://www.w3.org/2000/svg" xmlns:xlink="http://www.w3.org/1999/xlink">
<g id="graph0" class="graph" transform="scale(1 1) rotate(0) translate(4 108)">
<title>G</title>
<polygon fill="white" stroke="none" points="-4,4 -4,-108 109,-108 109,4 -4,4"/>
<!-- node4602590528 -->
<g id="node1" class="node">
<title>node4602590528</title>
<polygon fill="#cfe2d4" stroke="#444443" stroke-width="0.5" points="14,-77 0,-77 0,-27 14,-27 14,-77"/>
<polygon fill="#cfe2d4" stroke="none" points="1,-60 1,-76 13,-76 13,-60 1,-60"/>
<polyline fill="none" stroke="#444443" points="1,-60 13,-60"/>
<text text-anchor="start" x="4" y="-65.8" font-family="Helvetica,sans-Serif" font-size="9.00" fill="#444443">0</text>
<polygon fill="#cfe2d4" stroke="none" points="1,-44 1,-60 13,-60 13,-44 1,-44"/>
<polyline fill="none" stroke="#444443" points="1,-44 13,-44"/>
<text text-anchor="start" x="4" y="-49.8" font-family="Helvetica,sans-Serif" font-size="9.00" fill="#444443">1</text>
<polygon fill="#cfe2d4" stroke="none" points="1,-28 1,-44 13,-44 13,-28 1,-28"/>
<text text-anchor="start" x="4" y="-33.8" font-family="Helvetica,sans-Serif" font-size="9.00" fill="#444443">2</text>
</g>
<!-- node4602590080 -->
<g id="node2" class="node">
<title>node4602590080</title>
<polygon fill="none" stroke="black" stroke-width="0.5" points="99.5,-104 48.5,-104 48.5,-72 99.5,-72 99.5,-104"/>
<polygon fill="#fefecd" stroke="none" points="50,-91 50,-103 82,-103 82,-91 50,-91"/>
<polyline fill="none" stroke="black" points="50,-91 82,-91 82,-103"/>
<text text-anchor="start" x="63" y="-94.8" font-family="Helvetica,sans-Serif" font-size="9.00" fill="#444443">0</text>
<polygon fill="#fefecd" stroke="none" points="82,-91 82,-103 99,-103 99,-91 82,-91"/>
<polyline fill="none" stroke="black" points="82,-91 99,-91"/>
<text text-anchor="start" x="87.5" y="-94.8" font-family="Helvetica,sans-Serif" font-size="9.00" fill="#444443">1</text>
<polygon fill="#fefecd" stroke="none" points="50,-73 50,-91 82,-91 82,-73 50,-73"/>
<polyline fill="none" stroke="black" points="82,-73 82,-91"/>
<text text-anchor="start" x="53" y="-79.2" font-family="Helvetica,sans-Serif" font-size="11.00" fill="#444443">&#39;Alex&#39;</text>
<polygon fill="#fefecd" stroke="none" points="82,-73 82,-91 99,-91 99,-73 82,-73"/>
<text text-anchor="start" x="84" y="-79.2" font-family="Helvetica,sans-Serif" font-size="11.00" fill="#444443">10</text>
</g>
<!-- node4602590528&#45;&gt;node4602590080 -->
<g id="edge1" class="edge">
<title>node4602590528:0&#45;&gt;node4602590080:w</title>
<path fill="none" stroke="#444443" stroke-width="0.5" d="M14,-68C29.41,-68 29.92,-84.14 42.31,-87.42"/>
<polygon fill="#444443" stroke="#444443" stroke-width="0.5" points="42.11,-88.81 46.25,-87.91 42.45,-86.03 42.11,-88.81"/>
</g>
<!-- node4602589440 -->
<g id="node3" class="node">
<title>node4602589440</title>
<polygon fill="none" stroke="black" stroke-width="0.5" points="99,-68 49,-68 49,-36 99,-36 99,-68"/>
<polygon fill="#fefecd" stroke="none" points="50,-55 50,-67 81,-67 81,-55 50,-55"/>
<polyline fill="none" stroke="black" points="50,-55 81,-55 81,-67"/>
<text text-anchor="start" x="62.5" y="-58.8" font-family="Helvetica,sans-Serif" font-size="9.00" fill="#444443">0</text>
<polygon fill="#fefecd" stroke="none" points="81,-55 81,-67 98,-67 98,-55 81,-55"/>
<polyline fill="none" stroke="black" points="81,-55 98,-55"/>
<text text-anchor="start" x="86.5" y="-58.8" font-family="Helvetica,sans-Serif" font-size="9.00" fill="#444443">1</text>
<polygon fill="#fefecd" stroke="none" points="50,-37 50,-55 81,-55 81,-37 50,-37"/>
<polyline fill="none" stroke="black" points="81,-37 81,-55"/>
<text text-anchor="start" x="53" y="-43.2" font-family="Helvetica,sans-Serif" font-size="11.00" fill="#444443">&#39;Bob&#39;</text>
<polygon fill="#fefecd" stroke="none" points="81,-37 81,-55 98,-55 98,-37 81,-37"/>
<text text-anchor="start" x="83" y="-43.2" font-family="Helvetica,sans-Serif" font-size="11.00" fill="#444443">12</text>
</g>
<!-- node4602590528&#45;&gt;node4602589440 -->
<g id="edge2" class="edge">
<title>node4602590528:1&#45;&gt;node4602589440:w</title>
<path fill="none" stroke="#444443" stroke-width="0.5" d="M14,-52C27.46,-52 31.93,-52 43.42,-52"/>
<polygon fill="#444443" stroke="#444443" stroke-width="0.5" points="43.24,-53.4 47.24,-52 43.24,-50.6 43.24,-53.4"/>
</g>
<!-- node4602585216 -->
<g id="node4" class="node">
<title>node4602585216</title>
<polygon fill="none" stroke="black" stroke-width="0.5" points="105,-32 43,-32 43,0 105,0 105,-32"/>
<polygon fill="#fefecd" stroke="none" points="44,-19 44,-31 87,-31 87,-19 44,-19"/>
<polyline fill="none" stroke="black" points="44,-19 87,-19 87,-31"/>
<text text-anchor="start" x="62.5" y="-22.8" font-family="Helvetica,sans-Serif" font-size="9.00" fill="#444443">0</text>
<polygon fill="#fefecd" stroke="none" points="87,-19 87,-31 104,-31 104,-19 87,-19"/>
<polyline fill="none" stroke="black" points="87,-19 104,-19"/>
<text text-anchor="start" x="92.5" y="-22.8" font-family="Helvetica,sans-Serif" font-size="9.00" fill="#444443">1</text>
<polygon fill="#fefecd" stroke="none" points="44,-1 44,-19 87,-19 87,-1 44,-1"/>
<polyline fill="none" stroke="black" points="87,-1 87,-19"/>
<text text-anchor="start" x="47" y="-7.2" font-family="Helvetica,sans-Serif" font-size="11.00" fill="#444443">&#39;Clarke&#39;</text>
<polygon fill="#fefecd" stroke="none" points="87,-1 87,-19 104,-19 104,-1 87,-1"/>
<text text-anchor="start" x="89" y="-7.2" font-family="Helvetica,sans-Serif" font-size="11.00" fill="#444443">13</text>
</g>
<!-- node4602590528&#45;&gt;node4602585216 -->
<g id="edge3" class="edge">
<title>node4602590528:2&#45;&gt;node4602585216:w</title>
<path fill="none" stroke="#444443" stroke-width="0.5" d="M14,-36C27.94,-36 27.63,-20.14 38.46,-16.67"/>
<polygon fill="#444443" stroke="#444443" stroke-width="0.5" points="38.5,-18.08 42.25,-16.11 38.09,-15.3 38.5,-18.08"/>
</g>
</g>
</svg>
