<?xml version="1.0" encoding="UTF-8" standalone="no"?>
<!DOCTYPE svg PUBLIC "-//W3C//DTD SVG 1.1//EN"
 "http://www.w3.org/Graphics/SVG/1.1/DTD/svg11.dtd">
<!-- Generated by graphviz version 7.0.6 (20230106.0513)
 -->
<!-- Title: G Pages: 1 -->
<svg width="34pt" height="44pt"
 viewBox="0.00 0.00 34.00 44.00" xmlns="http://www.w3.org/2000/svg" xmlns:xlink="http://www.w3.org/1999/xlink">
<g id="graph0" class="graph" transform="scale(1 1) rotate(0) translate(4 40)">
<title>G</title>
<polygon fill="white" stroke="none" points="-4,4 -4,-40 30,-40 30,4 -4,4"/>
<!-- node4378425936 -->
<g id="node1" class="node">
<title>node4378425936</title>
<polygon fill="none" stroke="black" stroke-width="0.5" points="26,-36 0,-36 0,0 26,0 26,-36"/>
<polygon fill="#fefecd" stroke="none" points="1,-18 1,-35 13,-35 13,-18 1,-18"/>
<text text-anchor="start" x="4" y="-24" font-family="Helvetica,sans-Serif" font-size="10.00" fill="#444443">1</text>
<polygon fill="#fefecd" stroke="none" points="13,-18 13,-35 25,-35 25,-18 13,-18"/>
<text text-anchor="start" x="16" y="-24" font-family="Helvetica,sans-Serif" font-size="10.00" fill="#444443">2</text>
<polygon fill="#fefecd" stroke="none" points="1,-1 1,-18 13,-18 13,-1 1,-1"/>
<text text-anchor="start" x="4" y="-7" font-family="Helvetica,sans-Serif" font-size="10.00" fill="#444443">3</text>
<polygon fill="#fefecd" stroke="none" points="13,-1 13,-18 25,-18 25,-1 13,-1"/>
<text text-anchor="start" x="16" y="-7" font-family="Helvetica,sans-Serif" font-size="10.00" fill="#444443">4</text>
</g>
</g>
</svg>
