<?xml version="1.0" encoding="UTF-8" standalone="no"?>
<!DOCTYPE svg PUBLIC "-//W3C//DTD SVG 1.1//EN"
 "http://www.w3.org/Graphics/SVG/1.1/DTD/svg11.dtd">
<!-- Generated by graphviz version 7.0.6 (20230106.0513)
 -->
<!-- Title: G Pages: 1 -->
<svg width="170pt" height="40pt"
 viewBox="0.00 0.00 170.00 40.00" xmlns="http://www.w3.org/2000/svg" xmlns:xlink="http://www.w3.org/1999/xlink">
<g id="graph0" class="graph" transform="scale(1 1) rotate(0) translate(4 36)">
<title>G</title>
<polygon fill="white" stroke="none" points="-4,4 -4,-36 166,-36 166,4 -4,4"/>
<!-- node4372328064 -->
<g id="node1" class="node">
<title>node4372328064</title>
<polygon fill="none" stroke="black" stroke-width="0.5" points="162,-32 0,-32 0,0 162,0 162,-32"/>
<polygon fill="#fefecd" stroke="none" points="1,-19 1,-31 66,-31 66,-19 1,-19"/>
<polyline fill="none" stroke="black" points="1,-19 66,-19 66,-31"/>
<text text-anchor="start" x="30.5" y="-22.8" font-family="Helvetica,sans-Serif" font-size="9.00" fill="#444443">0</text>
<polygon fill="#fefecd" stroke="none" points="66,-19 66,-31 161,-31 161,-19 66,-19"/>
<polyline fill="none" stroke="black" points="66,-19 161,-19"/>
<text text-anchor="start" x="110.5" y="-22.8" font-family="Helvetica,sans-Serif" font-size="9.00" fill="#444443">1</text>
<polygon fill="#fefecd" stroke="none" points="1,-1 1,-19 66,-19 66,-1 1,-1"/>
<polyline fill="none" stroke="black" points="66,-1 66,-19"/>
<text text-anchor="start" x="4" y="-7.2" font-family="Helvetica,sans-Serif" font-size="11.00" fill="#444443">{&#39;a&#39;: 1, &#39;b&#39;: 2}</text>
<polygon fill="#fefecd" stroke="none" points="66,-1 66,-19 161,-19 161,-1 66,-1"/>
<text text-anchor="start" x="68" y="-7.2" font-family="Helvetica,sans-Serif" font-size="11.00" fill="#444443">&quot;{&#39;a&#39;: 5, &#39;b&#39;: 10, &#39;c...&quot;</text>
</g>
</g>
</svg>
