<?xml version="1.0" encoding="UTF-8" standalone="no"?>
<!DOCTYPE svg PUBLIC "-//W3C//DTD SVG 1.1//EN"
 "http://www.w3.org/Graphics/SVG/1.1/DTD/svg11.dtd">
<!-- Generated by graphviz version 7.0.6 (20230106.0513)
 -->
<!-- Title: G Pages: 1 -->
<svg width="143pt" height="40pt"
 viewBox="0.00 0.00 143.00 40.00" xmlns="http://www.w3.org/2000/svg" xmlns:xlink="http://www.w3.org/1999/xlink">
<g id="graph0" class="graph" transform="scale(1 1) rotate(0) translate(4 36)">
<title>G</title>
<polygon fill="white" stroke="none" points="-4,4 -4,-36 139,-36 139,4 -4,4"/>
<!-- node4379315456 -->
<g id="node1" class="node">
<title>node4379315456</title>
<polygon fill="none" stroke="black" stroke-width="0.5" points="135,-32 0,-32 0,0 135,0 135,-32"/>
<polygon fill="#fefecd" stroke="none" points="1.5,-19 1.5,-31 23.5,-31 23.5,-19 1.5,-19"/>
<polyline fill="none" stroke="black" points="1.5,-19 23.5,-19 23.5,-31"/>
<text text-anchor="start" x="9.5" y="-22.8" font-family="Helvetica,sans-Serif" font-size="9.00" fill="#444443">0</text>
<polygon fill="#fefecd" stroke="none" points="23.5,-19 23.5,-31 45.5,-31 45.5,-19 23.5,-19"/>
<polyline fill="none" stroke="black" points="23.5,-19 45.5,-19 45.5,-31"/>
<text text-anchor="start" x="31.5" y="-22.8" font-family="Helvetica,sans-Serif" font-size="9.00" fill="#444443">1</text>
<polygon fill="#fefecd" stroke="none" points="45.5,-19 45.5,-31 67.5,-31 67.5,-19 45.5,-19"/>
<polyline fill="none" stroke="black" points="45.5,-19 67.5,-19 67.5,-31"/>
<text text-anchor="start" x="53.5" y="-22.8" font-family="Helvetica,sans-Serif" font-size="9.00" fill="#444443">2</text>
<polygon fill="#fefecd" stroke="none" points="67.5,-19 67.5,-31 92.5,-31 92.5,-19 67.5,-19"/>
<polyline fill="none" stroke="black" points="67.5,-19 92.5,-19 92.5,-31"/>
<text text-anchor="start" x="77" y="-22.8" font-family="Helvetica,sans-Serif" font-size="9.00" fill="#444443">3</text>
<polygon fill="#fefecd" stroke="none" points="92.5,-19 92.5,-31 114.5,-31 114.5,-19 92.5,-19"/>
<polyline fill="none" stroke="black" points="92.5,-19 114.5,-19 114.5,-31"/>
<text text-anchor="start" x="100.5" y="-22.8" font-family="Helvetica,sans-Serif" font-size="9.00" fill="#444443">4</text>
<polygon fill="#fefecd" stroke="none" points="114.5,-19 114.5,-31 134.5,-31 134.5,-19 114.5,-19"/>
<polyline fill="none" stroke="black" points="114.5,-19 134.5,-19"/>
<text text-anchor="start" x="121.5" y="-22.8" font-family="Helvetica,sans-Serif" font-size="9.00" fill="#444443">5</text>
<polygon fill="#fefecd" stroke="none" points="1.5,-1 1.5,-19 23.5,-19 23.5,-1 1.5,-1"/>
<polyline fill="none" stroke="black" points="23.5,-1 23.5,-19"/>
<text text-anchor="start" x="4.5" y="-7.2" font-family="Helvetica,sans-Serif" font-size="11.00" fill="#444443">1.0</text>
<polygon fill="#fefecd" stroke="none" points="23.5,-1 23.5,-19 45.5,-19 45.5,-1 23.5,-1"/>
<polyline fill="none" stroke="black" points="45.5,-1 45.5,-19"/>
<text text-anchor="start" x="26.5" y="-7.2" font-family="Helvetica,sans-Serif" font-size="11.00" fill="#444443">3.0</text>
<polygon fill="#fefecd" stroke="none" points="45.5,-1 45.5,-19 67.5,-19 67.5,-1 45.5,-1"/>
<polyline fill="none" stroke="black" points="67.5,-1 67.5,-19"/>
<text text-anchor="start" x="48.5" y="-7.2" font-family="Helvetica,sans-Serif" font-size="11.00" fill="#444443">5.0</text>
<polygon fill="#fefecd" stroke="none" points="67.5,-1 67.5,-19 92.5,-19 92.5,-1 67.5,-1"/>
<polyline fill="none" stroke="black" points="92.5,-1 92.5,-19"/>
<text text-anchor="start" x="70.5" y="-7.2" font-family="Helvetica,sans-Serif" font-size="11.00" fill="#444443">nan</text>
<polygon fill="#fefecd" stroke="none" points="92.5,-1 92.5,-19 114.5,-19 114.5,-1 92.5,-1"/>
<polyline fill="none" stroke="black" points="114.5,-1 114.5,-19"/>
<text text-anchor="start" x="95.5" y="-7.2" font-family="Helvetica,sans-Serif" font-size="11.00" fill="#444443">6.0</text>
<polygon fill="#fefecd" stroke="none" points="114.5,-1 114.5,-19 134.5,-19 134.5,-1 114.5,-1"/>
<text text-anchor="start" x="116.5" y="-7.2" font-family="Helvetica,sans-Serif" font-size="11.00" fill="#444443">8.0</text>
</g>
</g>
</svg>
