<?xml version="1.0" encoding="UTF-8" standalone="no"?>
<!DOCTYPE svg PUBLIC "-//W3C//DTD SVG 1.1//EN"
 "http://www.w3.org/Graphics/SVG/1.1/DTD/svg11.dtd">
<!-- Generated by graphviz version 7.0.6 (20230106.0513)
 -->
<!-- Title: G Pages: 1 -->
<svg width="47pt" height="40pt"
 viewBox="0.00 0.00 47.00 40.00" xmlns="http://www.w3.org/2000/svg" xmlns:xlink="http://www.w3.org/1999/xlink">
<g id="graph0" class="graph" transform="scale(1 1) rotate(0) translate(4 36)">
<title>G</title>
<polygon fill="white" stroke="none" points="-4,4 -4,-36 43,-36 43,4 -4,4"/>
<!-- node4605521376 -->
<g id="node1" class="node">
<title>node4605521376</title>
<polygon fill="none" stroke="black" stroke-width="0.5" points="39,-32 0,-32 0,0 39,0 39,-32"/>
<polygon fill="#fefecd" stroke="none" points="1.5,-19 1.5,-31 14.5,-31 14.5,-19 1.5,-19"/>
<polyline fill="none" stroke="black" points="1.5,-19 14.5,-19 14.5,-31"/>
<text text-anchor="start" x="5" y="-22.8" font-family="Helvetica,sans-Serif" font-size="9.00" fill="#444443">0</text>
<polygon fill="#fefecd" stroke="none" points="14.5,-19 14.5,-31 27.5,-31 27.5,-19 14.5,-19"/>
<polyline fill="none" stroke="black" points="14.5,-19 27.5,-19 27.5,-31"/>
<text text-anchor="start" x="18" y="-22.8" font-family="Helvetica,sans-Serif" font-size="9.00" fill="#444443">1</text>
<polygon fill="#fefecd" stroke="none" points="27.5,-19 27.5,-31 38.5,-31 38.5,-19 27.5,-19"/>
<polyline fill="none" stroke="black" points="27.5,-19 38.5,-19"/>
<text text-anchor="start" x="30" y="-22.8" font-family="Helvetica,sans-Serif" font-size="9.00" fill="#444443">2</text>
<polygon fill="#fefecd" stroke="none" points="1.5,-1 1.5,-19 14.5,-19 14.5,-1 1.5,-1"/>
<polyline fill="none" stroke="black" points="14.5,-1 14.5,-19"/>
<text text-anchor="start" x="4.5" y="-7.2" font-family="Helvetica,sans-Serif" font-size="11.00" fill="#444443">3</text>
<polygon fill="#fefecd" stroke="none" points="14.5,-1 14.5,-19 27.5,-19 27.5,-1 14.5,-1"/>
<polyline fill="none" stroke="black" points="27.5,-1 27.5,-19"/>
<text text-anchor="start" x="17.5" y="-7.2" font-family="Helvetica,sans-Serif" font-size="11.00" fill="#444443">6</text>
<polygon fill="#fefecd" stroke="none" points="27.5,-1 27.5,-19 38.5,-19 38.5,-1 27.5,-1"/>
<text text-anchor="start" x="29.5" y="-7.2" font-family="Helvetica,sans-Serif" font-size="11.00" fill="#444443">9</text>
</g>
</g>
</svg>
