<?xml version="1.0" encoding="UTF-8" standalone="no"?>
<!DOCTYPE svg PUBLIC "-//W3C//DTD SVG 1.1//EN"
 "http://www.w3.org/Graphics/SVG/1.1/DTD/svg11.dtd">
<!-- Generated by graphviz version 7.0.6 (20230106.0513)
 -->
<!-- Title: G Pages: 1 -->
<svg width="186pt" height="40pt"
 viewBox="0.00 0.00 186.00 40.00" xmlns="http://www.w3.org/2000/svg" xmlns:xlink="http://www.w3.org/1999/xlink">
<g id="graph0" class="graph" transform="scale(1 1) rotate(0) translate(4 36)">
<title>G</title>
<polygon fill="white" stroke="none" points="-4,4 -4,-36 182,-36 182,4 -4,4"/>
<!-- node4602590528 -->
<g id="node1" class="node">
<title>node4602590528</title>
<polygon fill="none" stroke="black" stroke-width="0.5" points="178,-32 0,-32 0,0 178,0 178,-32"/>
<polygon fill="#fefecd" stroke="none" points="1,-19 1,-31 57,-31 57,-19 1,-19"/>
<polyline fill="none" stroke="black" points="1,-19 57,-19 57,-31"/>
<text text-anchor="start" x="26" y="-22.8" font-family="Helvetica,sans-Serif" font-size="9.00" fill="#444443">0</text>
<polygon fill="#fefecd" stroke="none" points="57,-19 57,-31 112,-31 112,-19 57,-19"/>
<polyline fill="none" stroke="black" points="57,-19 112,-19 112,-31"/>
<text text-anchor="start" x="81.5" y="-22.8" font-family="Helvetica,sans-Serif" font-size="9.00" fill="#444443">1</text>
<polygon fill="#fefecd" stroke="none" points="112,-19 112,-31 177,-31 177,-19 112,-19"/>
<polyline fill="none" stroke="black" points="112,-19 177,-19"/>
<text text-anchor="start" x="141.5" y="-22.8" font-family="Helvetica,sans-Serif" font-size="9.00" fill="#444443">2</text>
<polygon fill="#fefecd" stroke="none" points="1,-1 1,-19 57,-19 57,-1 1,-1"/>
<polyline fill="none" stroke="black" points="57,-1 57,-19"/>
<text text-anchor="start" x="4" y="-7.2" font-family="Helvetica,sans-Serif" font-size="11.00" fill="#444443">[&#39;Alex&#39;, 10]</text>
<polygon fill="#fefecd" stroke="none" points="57,-1 57,-19 112,-19 112,-1 57,-1"/>
<polyline fill="none" stroke="black" points="112,-1 112,-19"/>
<text text-anchor="start" x="60" y="-7.2" font-family="Helvetica,sans-Serif" font-size="11.00" fill="#444443">[&#39;Bob&#39;, 12]</text>
<polygon fill="#fefecd" stroke="none" points="112,-1 112,-19 177,-19 177,-1 112,-1"/>
<text text-anchor="start" x="114" y="-7.2" font-family="Helvetica,sans-Serif" font-size="11.00" fill="#444443">[&#39;Clarke&#39;, 13]</text>
</g>
</g>
</svg>
