<?xml version="1.0" encoding="UTF-8" standalone="no"?>
<!DOCTYPE svg PUBLIC "-//W3C//DTD SVG 1.1//EN"
 "http://www.w3.org/Graphics/SVG/1.1/DTD/svg11.dtd">
<!-- Generated by graphviz version 7.0.6 (20230106.0513)
 -->
<!-- Title: G Pages: 1 -->
<svg width="176pt" height="293pt"
 viewBox="0.00 0.00 176.00 293.00" xmlns="http://www.w3.org/2000/svg" xmlns:xlink="http://www.w3.org/1999/xlink">
<g id="graph0" class="graph" transform="scale(1 1) rotate(0) translate(4 289)">
<title>G</title>
<polygon fill="white" stroke="none" points="-4,4 -4,-289 172,-289 172,4 -4,4"/>
<!-- node4605449344 -->
<g id="node1" class="node">
<title>node4605449344</title>
<polygon fill="#cfe2d4" stroke="#444443" stroke-width="0.5" points="14,-175 0,-175 0,-109 14,-109 14,-175"/>
<polygon fill="#cfe2d4" stroke="none" points="1,-158 1,-174 13,-174 13,-158 1,-158"/>
<polyline fill="none" stroke="#444443" points="1,-158 13,-158"/>
<text text-anchor="start" x="4" y="-163.8" font-family="Helvetica,sans-Serif" font-size="9.00" fill="#444443">0</text>
<polygon fill="#cfe2d4" stroke="none" points="1,-142 1,-158 13,-158 13,-142 1,-142"/>
<polyline fill="none" stroke="#444443" points="1,-142 13,-142"/>
<text text-anchor="start" x="4" y="-147.8" font-family="Helvetica,sans-Serif" font-size="9.00" fill="#444443">1</text>
<polygon fill="#cfe2d4" stroke="none" points="1,-126 1,-142 13,-142 13,-126 1,-126"/>
<polyline fill="none" stroke="#444443" points="1,-126 13,-126"/>
<text text-anchor="start" x="4" y="-131.8" font-family="Helvetica,sans-Serif" font-size="9.00" fill="#444443">2</text>
<polygon fill="#cfe2d4" stroke="none" points="1,-110 1,-126 13,-126 13,-110 1,-110"/>
<text text-anchor="start" x="4" y="-115.8" font-family="Helvetica,sans-Serif" font-size="9.00" fill="#444443">3</text>
</g>
<!-- node4605455488 -->
<g id="node2" class="node">
<title>node4605455488</title>
<polygon fill="#fefecd" stroke="#444443" stroke-width="0.5" points="165,-285 39,-285 39,-219 165,-219 165,-285"/>
<polygon fill="#fefecd" stroke="none" points="41,-269 41,-283 111,-283 111,-269 41,-269"/>
<text text-anchor="start" x="95" y="-273.2" font-family="Helvetica,sans-Serif" font-size="11.00" fill="#444443">&#39;id&#39; </text>
<text text-anchor="start" x="111" y="-271.8" font-family="Helvetica,sans-Serif" font-size="9.00" fill="#444443">→</text>
<polygon fill="#fefecd" stroke="none" points="121,-269 121,-283 163,-283 163,-269 121,-269"/>
<text text-anchor="start" x="122" y="-273.2" font-family="Helvetica,sans-Serif" font-size="11.00" fill="#444443"> 1</text>
<polygon fill="#fefecd" stroke="none" points="41,-267 41,-269 163,-269 163,-267 41,-267"/>
<polygon fill="#fefecd" stroke="none" points="41,-253 41,-267 111,-267 111,-253 41,-253"/>
<text text-anchor="start" x="76" y="-257.2" font-family="Helvetica,sans-Serif" font-size="11.00" fill="#444443">&#39;name&#39; </text>
<text text-anchor="start" x="111" y="-255.8" font-family="Helvetica,sans-Serif" font-size="9.00" fill="#444443">→</text>
<polygon fill="#fefecd" stroke="none" points="121,-253 121,-267 163,-267 163,-253 121,-253"/>
<text text-anchor="start" x="122" y="-257.2" font-family="Helvetica,sans-Serif" font-size="11.00" fill="#444443"> &#39;python&#39;</text>
<polygon fill="#fefecd" stroke="none" points="41,-251 41,-253 163,-253 163,-251 41,-251"/>
<polygon fill="#fefecd" stroke="none" points="41,-237 41,-251 111,-251 111,-237 41,-237"/>
<text text-anchor="start" x="80" y="-241.2" font-family="Helvetica,sans-Serif" font-size="11.00" fill="#444443">&#39;price&#39; </text>
<text text-anchor="start" x="111" y="-239.8" font-family="Helvetica,sans-Serif" font-size="9.00" fill="#444443">→</text>
<polygon fill="#fefecd" stroke="none" points="121,-237 121,-251 163,-251 163,-237 121,-237"/>
<text text-anchor="start" x="122" y="-241.2" font-family="Helvetica,sans-Serif" font-size="11.00" fill="#444443"> 56</text>
<polygon fill="#fefecd" stroke="none" points="41,-235 41,-237 163,-237 163,-235 41,-235"/>
<polygon fill="#fefecd" stroke="none" points="41,-221 41,-235 111,-235 111,-221 41,-221"/>
<text text-anchor="start" x="41" y="-225.2" font-family="Helvetica,sans-Serif" font-size="11.00" fill="#444443">&#39;no_of_pages&#39; </text>
<text text-anchor="start" x="111" y="-223.8" font-family="Helvetica,sans-Serif" font-size="9.00" fill="#444443">→</text>
<polygon fill="#fefecd" stroke="none" points="121,-221 121,-235 163,-235 163,-221 121,-221"/>
<text text-anchor="start" x="122" y="-225.2" font-family="Helvetica,sans-Serif" font-size="11.00" fill="#444443"> 34</text>
</g>
<!-- node4605449344&#45;&gt;node4605455488 -->
<g id="edge1" class="edge">
<title>node4605449344:0&#45;&gt;node4605455488:w</title>
<path fill="none" stroke="#444443" stroke-width="0.5" d="M7,-175C7,-192 17.67,-243.1 33.79,-250.97"/>
<polygon fill="#444443" stroke="#444443" stroke-width="0.5" points="33.05,-252.24 37.26,-251.82 33.71,-249.51 33.05,-252.24"/>
</g>
<!-- node4379377984 -->
<g id="node3" class="node">
<title>node4379377984</title>
<polygon fill="#fefecd" stroke="#444443" stroke-width="0.5" points="168,-212 36,-212 36,-146 168,-146 168,-212"/>
<polygon fill="#fefecd" stroke="none" points="38,-196 38,-210 108,-210 108,-196 38,-196"/>
<text text-anchor="start" x="92" y="-200.2" font-family="Helvetica,sans-Serif" font-size="11.00" fill="#444443">&#39;id&#39; </text>
<text text-anchor="start" x="108" y="-198.8" font-family="Helvetica,sans-Serif" font-size="9.00" fill="#444443">→</text>
<polygon fill="#fefecd" stroke="none" points="118,-196 118,-210 166,-210 166,-196 118,-196"/>
<text text-anchor="start" x="119" y="-200.2" font-family="Helvetica,sans-Serif" font-size="11.00" fill="#444443"> 2</text>
<polygon fill="#fefecd" stroke="none" points="38,-194 38,-196 166,-196 166,-194 38,-194"/>
<polygon fill="#fefecd" stroke="none" points="38,-180 38,-194 108,-194 108,-180 38,-180"/>
<text text-anchor="start" x="73" y="-184.2" font-family="Helvetica,sans-Serif" font-size="11.00" fill="#444443">&#39;name&#39; </text>
<text text-anchor="start" x="108" y="-182.8" font-family="Helvetica,sans-Serif" font-size="9.00" fill="#444443">→</text>
<polygon fill="#fefecd" stroke="none" points="118,-180 118,-194 166,-194 166,-180 118,-180"/>
<text text-anchor="start" x="119" y="-184.2" font-family="Helvetica,sans-Serif" font-size="11.00" fill="#444443"> &#39;Node&#45;js&#39;</text>
<polygon fill="#fefecd" stroke="none" points="38,-178 38,-180 166,-180 166,-178 38,-178"/>
<polygon fill="#fefecd" stroke="none" points="38,-164 38,-178 108,-178 108,-164 38,-164"/>
<text text-anchor="start" x="77" y="-168.2" font-family="Helvetica,sans-Serif" font-size="11.00" fill="#444443">&#39;price&#39; </text>
<text text-anchor="start" x="108" y="-166.8" font-family="Helvetica,sans-Serif" font-size="9.00" fill="#444443">→</text>
<polygon fill="#fefecd" stroke="none" points="118,-164 118,-178 166,-178 166,-164 118,-164"/>
<text text-anchor="start" x="119" y="-168.2" font-family="Helvetica,sans-Serif" font-size="11.00" fill="#444443"> 45</text>
<polygon fill="#fefecd" stroke="none" points="38,-162 38,-164 166,-164 166,-162 38,-162"/>
<polygon fill="#fefecd" stroke="none" points="38,-148 38,-162 108,-162 108,-148 38,-148"/>
<text text-anchor="start" x="38" y="-152.2" font-family="Helvetica,sans-Serif" font-size="11.00" fill="#444443">&#39;no_of_pages&#39; </text>
<text text-anchor="start" x="108" y="-150.8" font-family="Helvetica,sans-Serif" font-size="9.00" fill="#444443">→</text>
<polygon fill="#fefecd" stroke="none" points="118,-148 118,-162 166,-162 166,-148 118,-148"/>
<text text-anchor="start" x="119" y="-152.2" font-family="Helvetica,sans-Serif" font-size="11.00" fill="#444443"> 54</text>
</g>
<!-- node4605449344&#45;&gt;node4379377984 -->
<g id="edge2" class="edge">
<title>node4605449344:1&#45;&gt;node4379377984:w</title>
<path fill="none" stroke="#444443" stroke-width="0.5" d="M14,-150C28.41,-150 21.77,-173 31.57,-178.04"/>
<polygon fill="#444443" stroke="#444443" stroke-width="0.5" points="31.05,-179.35 35.26,-178.84 31.65,-176.62 31.05,-179.35"/>
</g>
<!-- node4605447040 -->
<g id="node4" class="node">
<title>node4605447040</title>
<polygon fill="#fefecd" stroke="#444443" stroke-width="0.5" points="156,-139 48,-139 48,-73 156,-73 156,-139"/>
<polygon fill="#fefecd" stroke="none" points="50,-123 50,-137 120,-137 120,-123 50,-123"/>
<text text-anchor="start" x="104" y="-127.2" font-family="Helvetica,sans-Serif" font-size="11.00" fill="#444443">&#39;id&#39; </text>
<text text-anchor="start" x="120" y="-125.8" font-family="Helvetica,sans-Serif" font-size="9.00" fill="#444443">→</text>
<polygon fill="#fefecd" stroke="none" points="130,-123 130,-137 154,-137 154,-123 130,-123"/>
<text text-anchor="start" x="131" y="-127.2" font-family="Helvetica,sans-Serif" font-size="11.00" fill="#444443"> 3</text>
<polygon fill="#fefecd" stroke="none" points="50,-121 50,-123 154,-123 154,-121 50,-121"/>
<polygon fill="#fefecd" stroke="none" points="50,-107 50,-121 120,-121 120,-107 50,-107"/>
<text text-anchor="start" x="85" y="-111.2" font-family="Helvetica,sans-Serif" font-size="11.00" fill="#444443">&#39;name&#39; </text>
<text text-anchor="start" x="120" y="-109.8" font-family="Helvetica,sans-Serif" font-size="9.00" fill="#444443">→</text>
<polygon fill="#fefecd" stroke="none" points="130,-107 130,-121 154,-121 154,-107 130,-107"/>
<text text-anchor="start" x="131" y="-111.2" font-family="Helvetica,sans-Serif" font-size="11.00" fill="#444443"> &#39;R&#39;</text>
<polygon fill="#fefecd" stroke="none" points="50,-105 50,-107 154,-107 154,-105 50,-105"/>
<polygon fill="#fefecd" stroke="none" points="50,-91 50,-105 120,-105 120,-91 50,-91"/>
<text text-anchor="start" x="89" y="-95.2" font-family="Helvetica,sans-Serif" font-size="11.00" fill="#444443">&#39;price&#39; </text>
<text text-anchor="start" x="120" y="-93.8" font-family="Helvetica,sans-Serif" font-size="9.00" fill="#444443">→</text>
<polygon fill="#fefecd" stroke="none" points="130,-91 130,-105 154,-105 154,-91 130,-91"/>
<text text-anchor="start" x="131" y="-95.2" font-family="Helvetica,sans-Serif" font-size="11.00" fill="#444443"> 100</text>
<polygon fill="#fefecd" stroke="none" points="50,-89 50,-91 154,-91 154,-89 50,-89"/>
<polygon fill="#fefecd" stroke="none" points="50,-75 50,-89 120,-89 120,-75 50,-75"/>
<text text-anchor="start" x="50" y="-79.2" font-family="Helvetica,sans-Serif" font-size="11.00" fill="#444443">&#39;no_of_pages&#39; </text>
<text text-anchor="start" x="120" y="-77.8" font-family="Helvetica,sans-Serif" font-size="9.00" fill="#444443">→</text>
<polygon fill="#fefecd" stroke="none" points="130,-75 130,-89 154,-89 154,-75 130,-75"/>
<text text-anchor="start" x="131" y="-79.2" font-family="Helvetica,sans-Serif" font-size="11.00" fill="#444443"> 80</text>
</g>
<!-- node4605449344&#45;&gt;node4605447040 -->
<g id="edge3" class="edge">
<title>node4605449344:2&#45;&gt;node4605447040:w</title>
<path fill="none" stroke="#444443" stroke-width="0.5" d="M14,-134C31.58,-134 28.52,-110.61 42.56,-106.58"/>
<polygon fill="#444443" stroke="#444443" stroke-width="0.5" points="42.47,-108.01 46.25,-106.1 42.1,-105.23 42.47,-108.01"/>
</g>
<!-- node4605452672 -->
<g id="node5" class="node">
<title>node4605452672</title>
<polygon fill="#fefecd" stroke="#444443" stroke-width="0.5" points="160.5,-66 43.5,-66 43.5,0 160.5,0 160.5,-66"/>
<polygon fill="#fefecd" stroke="none" points="46,-50 46,-64 116,-64 116,-50 46,-50"/>
<text text-anchor="start" x="100" y="-54.2" font-family="Helvetica,sans-Serif" font-size="11.00" fill="#444443">&#39;id&#39; </text>
<text text-anchor="start" x="116" y="-52.8" font-family="Helvetica,sans-Serif" font-size="9.00" fill="#444443">→</text>
<polygon fill="#fefecd" stroke="none" points="126,-50 126,-64 159,-64 159,-50 126,-50"/>
<text text-anchor="start" x="127" y="-54.2" font-family="Helvetica,sans-Serif" font-size="11.00" fill="#444443"> 4</text>
<polygon fill="#fefecd" stroke="none" points="46,-48 46,-50 159,-50 159,-48 46,-48"/>
<polygon fill="#fefecd" stroke="none" points="46,-34 46,-48 116,-48 116,-34 46,-34"/>
<text text-anchor="start" x="81" y="-38.2" font-family="Helvetica,sans-Serif" font-size="11.00" fill="#444443">&#39;name&#39; </text>
<text text-anchor="start" x="116" y="-36.8" font-family="Helvetica,sans-Serif" font-size="9.00" fill="#444443">→</text>
<polygon fill="#fefecd" stroke="none" points="126,-34 126,-48 159,-48 159,-34 126,-34"/>
<text text-anchor="start" x="127" y="-38.2" font-family="Helvetica,sans-Serif" font-size="11.00" fill="#444443"> &#39;Html&#39;</text>
<polygon fill="#fefecd" stroke="none" points="46,-32 46,-34 159,-34 159,-32 46,-32"/>
<polygon fill="#fefecd" stroke="none" points="46,-18 46,-32 116,-32 116,-18 46,-18"/>
<text text-anchor="start" x="85" y="-22.2" font-family="Helvetica,sans-Serif" font-size="11.00" fill="#444443">&#39;price&#39; </text>
<text text-anchor="start" x="116" y="-20.8" font-family="Helvetica,sans-Serif" font-size="9.00" fill="#444443">→</text>
<polygon fill="#fefecd" stroke="none" points="126,-18 126,-32 159,-32 159,-18 126,-18"/>
<text text-anchor="start" x="127" y="-22.2" font-family="Helvetica,sans-Serif" font-size="11.00" fill="#444443"> 16</text>
<polygon fill="#fefecd" stroke="none" points="46,-16 46,-18 159,-18 159,-16 46,-16"/>
<polygon fill="#fefecd" stroke="none" points="46,-2 46,-16 116,-16 116,-2 46,-2"/>
<text text-anchor="start" x="46" y="-6.2" font-family="Helvetica,sans-Serif" font-size="11.00" fill="#444443">&#39;no_of_pages&#39; </text>
<text text-anchor="start" x="116" y="-4.8" font-family="Helvetica,sans-Serif" font-size="9.00" fill="#444443">→</text>
<polygon fill="#fefecd" stroke="none" points="126,-2 126,-16 159,-16 159,-2 126,-2"/>
<text text-anchor="start" x="127" y="-6.2" font-family="Helvetica,sans-Serif" font-size="11.00" fill="#444443"> 20</text>
</g>
<!-- node4605449344&#45;&gt;node4605452672 -->
<g id="edge4" class="edge">
<title>node4605449344:3&#45;&gt;node4605452672:w</title>
<path fill="none" stroke="#444443" stroke-width="0.5" d="M7,-109C7,-91.86 20.94,-41.73 37.69,-34.01"/>
<polygon fill="#444443" stroke="#444443" stroke-width="0.5" points="37.69,-35.44 41.26,-33.17 37.05,-32.72 37.69,-35.44"/>
</g>
</g>
</svg>
