<?xml version="1.0" encoding="UTF-8" standalone="no"?>
<!DOCTYPE svg PUBLIC "-//W3C//DTD SVG 1.1//EN"
 "http://www.w3.org/Graphics/SVG/1.1/DTD/svg11.dtd">
<!-- Generated by graphviz version 7.0.6 (20230106.0513)
 -->
<!-- Title: G Pages: 1 -->
<svg width="92pt" height="40pt"
 viewBox="0.00 0.00 92.00 40.00" xmlns="http://www.w3.org/2000/svg" xmlns:xlink="http://www.w3.org/1999/xlink">
<g id="graph0" class="graph" transform="scale(1 1) rotate(0) translate(4 36)">
<title>G</title>
<polygon fill="white" stroke="none" points="-4,4 -4,-36 88,-36 88,4 -4,4"/>
<!-- node4378407488 -->
<g id="node1" class="node">
<title>node4378407488</title>
<polygon fill="none" stroke="black" stroke-width="0.5" points="84,-32 0,-32 0,0 84,0 84,-32"/>
<polygon fill="#fefecd" stroke="none" points="1,-19 1,-31 18,-31 18,-19 1,-19"/>
<polyline fill="none" stroke="black" points="1,-19 18,-19 18,-31"/>
<text text-anchor="start" x="6.5" y="-22.8" font-family="Helvetica,sans-Serif" font-size="9.00" fill="#444443">0</text>
<polygon fill="#fefecd" stroke="none" points="18,-19 18,-31 35,-31 35,-19 18,-19"/>
<polyline fill="none" stroke="black" points="18,-19 35,-19 35,-31"/>
<text text-anchor="start" x="23.5" y="-22.8" font-family="Helvetica,sans-Serif" font-size="9.00" fill="#444443">1</text>
<polygon fill="#fefecd" stroke="none" points="35,-19 35,-31 51,-31 51,-19 35,-19"/>
<polyline fill="none" stroke="black" points="35,-19 51,-19 51,-31"/>
<text text-anchor="start" x="40" y="-22.8" font-family="Helvetica,sans-Serif" font-size="9.00" fill="#444443">2</text>
<polygon fill="#fefecd" stroke="none" points="51,-19 51,-31 68,-31 68,-19 51,-19"/>
<polyline fill="none" stroke="black" points="51,-19 68,-19 68,-31"/>
<text text-anchor="start" x="56.5" y="-22.8" font-family="Helvetica,sans-Serif" font-size="9.00" fill="#444443">3</text>
<polygon fill="#fefecd" stroke="none" points="68,-19 68,-31 83,-31 83,-19 68,-19"/>
<polyline fill="none" stroke="black" points="68,-19 83,-19"/>
<text text-anchor="start" x="72.5" y="-22.8" font-family="Helvetica,sans-Serif" font-size="9.00" fill="#444443">4</text>
<polygon fill="#fefecd" stroke="none" points="1,-1 1,-19 18,-19 18,-1 1,-1"/>
<polyline fill="none" stroke="black" points="18,-1 18,-19"/>
<text text-anchor="start" x="4" y="-7.2" font-family="Helvetica,sans-Serif" font-size="11.00" fill="#444443">&#39;a&#39;</text>
<polygon fill="#fefecd" stroke="none" points="18,-1 18,-19 35,-19 35,-1 18,-1"/>
<polyline fill="none" stroke="black" points="35,-1 35,-19"/>
<text text-anchor="start" x="21" y="-7.2" font-family="Helvetica,sans-Serif" font-size="11.00" fill="#444443">&#39;b&#39;</text>
<polygon fill="#fefecd" stroke="none" points="35,-1 35,-19 51,-19 51,-1 35,-1"/>
<polyline fill="none" stroke="black" points="51,-1 51,-19"/>
<text text-anchor="start" x="38" y="-7.2" font-family="Helvetica,sans-Serif" font-size="11.00" fill="#444443">&#39;c&#39;</text>
<polygon fill="#fefecd" stroke="none" points="51,-1 51,-19 68,-19 68,-1 51,-1"/>
<polyline fill="none" stroke="black" points="68,-1 68,-19"/>
<text text-anchor="start" x="54" y="-7.2" font-family="Helvetica,sans-Serif" font-size="11.00" fill="#444443">&#39;d&#39;</text>
<polygon fill="#fefecd" stroke="none" points="68,-1 68,-19 83,-19 83,-1 68,-1"/>
<text text-anchor="start" x="70" y="-7.2" font-family="Helvetica,sans-Serif" font-size="11.00" fill="#444443">&#39;e&#39;</text>
</g>
</g>
</svg>
