<?xml version="1.0" encoding="UTF-8" standalone="no"?>
<!DOCTYPE svg PUBLIC "-//W3C//DTD SVG 1.1//EN"
 "http://www.w3.org/Graphics/SVG/1.1/DTD/svg11.dtd">
<!-- Generated by graphviz version 7.0.6 (20230106.0513)
 -->
<!-- Title: G Pages: 1 -->
<svg width="90pt" height="99pt"
 viewBox="0.00 0.00 90.00 99.00" xmlns="http://www.w3.org/2000/svg" xmlns:xlink="http://www.w3.org/1999/xlink">
<g id="graph0" class="graph" transform="scale(1 1) rotate(0) translate(4 95)">
<title>G</title>
<polygon fill="white" stroke="none" points="-4,4 -4,-95 86,-95 86,4 -4,4"/>
<!-- node4605454080 -->
<g id="node1" class="node">
<title>node4605454080</title>
<polygon fill="#cfe2d4" stroke="#444443" stroke-width="0.5" points="14,-66 0,-66 0,-32 14,-32 14,-66"/>
<polygon fill="#cfe2d4" stroke="none" points="1,-49 1,-65 13,-65 13,-49 1,-49"/>
<polyline fill="none" stroke="#444443" points="1,-49 13,-49"/>
<text text-anchor="start" x="4" y="-54.8" font-family="Helvetica,sans-Serif" font-size="9.00" fill="#444443">0</text>
<polygon fill="#cfe2d4" stroke="none" points="1,-33 1,-49 13,-49 13,-33 1,-33"/>
<text text-anchor="start" x="4" y="-38.8" font-family="Helvetica,sans-Serif" font-size="9.00" fill="#444443">1</text>
</g>
<!-- node4605446016 -->
<g id="node2" class="node">
<title>node4605446016</title>
<polygon fill="#fefecd" stroke="#444443" stroke-width="0.5" points="79,-91 39,-91 39,-57 79,-57 79,-91"/>
<polygon fill="#fefecd" stroke="none" points="41,-75 41,-89 55,-89 55,-75 41,-75"/>
<text text-anchor="start" x="41" y="-79.2" font-family="Helvetica,sans-Serif" font-size="11.00" fill="#444443">&#39;a&#39; </text>
<text text-anchor="start" x="55" y="-77.8" font-family="Helvetica,sans-Serif" font-size="9.00" fill="#444443">→</text>
<polygon fill="#fefecd" stroke="none" points="65,-75 65,-89 77,-89 77,-75 65,-75"/>
<text text-anchor="start" x="66" y="-79.2" font-family="Helvetica,sans-Serif" font-size="11.00" fill="#444443"> 1</text>
<polygon fill="#fefecd" stroke="none" points="41,-73 41,-75 77,-75 77,-73 41,-73"/>
<polygon fill="#fefecd" stroke="none" points="41,-59 41,-73 55,-73 55,-59 41,-59"/>
<text text-anchor="start" x="41" y="-63.2" font-family="Helvetica,sans-Serif" font-size="11.00" fill="#444443">&#39;b&#39; </text>
<text text-anchor="start" x="55" y="-61.8" font-family="Helvetica,sans-Serif" font-size="9.00" fill="#444443">→</text>
<polygon fill="#fefecd" stroke="none" points="65,-59 65,-73 77,-73 77,-59 65,-59"/>
<text text-anchor="start" x="66" y="-63.2" font-family="Helvetica,sans-Serif" font-size="11.00" fill="#444443"> 2</text>
</g>
<!-- node4605454080&#45;&gt;node4605446016 -->
<g id="edge1" class="edge">
<title>node4605454080:0&#45;&gt;node4605446016:w</title>
<path fill="none" stroke="#444443" stroke-width="0.5" d="M14,-57C25.44,-57 25.23,-70.02 33.75,-73.27"/>
<polygon fill="#444443" stroke="#444443" stroke-width="0.5" points="33.07,-74.57 37.25,-73.87 33.55,-71.81 33.07,-74.57"/>
</g>
<!-- node4605447296 -->
<g id="node3" class="node">
<title>node4605447296</title>
<polygon fill="#fefecd" stroke="#444443" stroke-width="0.5" points="82,-50 36,-50 36,0 82,0 82,-50"/>
<polygon fill="#fefecd" stroke="none" points="38,-34 38,-48 52,-48 52,-34 38,-34"/>
<text text-anchor="start" x="38" y="-38.2" font-family="Helvetica,sans-Serif" font-size="11.00" fill="#444443">&#39;a&#39; </text>
<text text-anchor="start" x="52" y="-36.8" font-family="Helvetica,sans-Serif" font-size="9.00" fill="#444443">→</text>
<polygon fill="#fefecd" stroke="none" points="62,-34 62,-48 80,-48 80,-34 62,-34"/>
<text text-anchor="start" x="63" y="-38.2" font-family="Helvetica,sans-Serif" font-size="11.00" fill="#444443"> 5</text>
<polygon fill="#fefecd" stroke="none" points="38,-32 38,-34 80,-34 80,-32 38,-32"/>
<polygon fill="#fefecd" stroke="none" points="38,-18 38,-32 52,-32 52,-18 38,-18"/>
<text text-anchor="start" x="38" y="-22.2" font-family="Helvetica,sans-Serif" font-size="11.00" fill="#444443">&#39;b&#39; </text>
<text text-anchor="start" x="52" y="-20.8" font-family="Helvetica,sans-Serif" font-size="9.00" fill="#444443">→</text>
<polygon fill="#fefecd" stroke="none" points="62,-18 62,-32 80,-32 80,-18 62,-18"/>
<text text-anchor="start" x="63" y="-22.2" font-family="Helvetica,sans-Serif" font-size="11.00" fill="#444443"> 10</text>
<polygon fill="#fefecd" stroke="none" points="38,-16 38,-18 80,-18 80,-16 38,-16"/>
<polygon fill="#fefecd" stroke="none" points="38,-2 38,-16 52,-16 52,-2 38,-2"/>
<text text-anchor="start" x="39" y="-6.2" font-family="Helvetica,sans-Serif" font-size="11.00" fill="#444443">&#39;c&#39; </text>
<text text-anchor="start" x="52" y="-4.8" font-family="Helvetica,sans-Serif" font-size="9.00" fill="#444443">→</text>
<polygon fill="#fefecd" stroke="none" points="62,-2 62,-16 80,-16 80,-2 62,-2"/>
<text text-anchor="start" x="63" y="-6.2" font-family="Helvetica,sans-Serif" font-size="11.00" fill="#444443"> 20</text>
</g>
<!-- node4605454080&#45;&gt;node4605447296 -->
<g id="edge2" class="edge">
<title>node4605454080:1&#45;&gt;node4605447296:w</title>
<path fill="none" stroke="#444443" stroke-width="0.5" d="M14,-41C24.39,-41 24.24,-29.18 31.67,-25.86"/>
<polygon fill="#444443" stroke="#444443" stroke-width="0.5" points="31.61,-27.3 35.26,-25.15 31.06,-24.55 31.61,-27.3"/>
</g>
</g>
</svg>
