<?xml version="1.0" encoding="UTF-8" standalone="no"?>
<!DOCTYPE svg PUBLIC "-//W3C//DTD SVG 1.1//EN"
 "http://www.w3.org/Graphics/SVG/1.1/DTD/svg11.dtd">
<!-- Generated by graphviz version 7.0.6 (20230106.0513)
 -->
<!-- Title: G Pages: 1 -->
<svg width="87pt" height="56pt"
 viewBox="0.00 0.00 87.00 56.00" xmlns="http://www.w3.org/2000/svg" xmlns:xlink="http://www.w3.org/1999/xlink">
<g id="graph0" class="graph" transform="scale(1 1) rotate(0) translate(4 52)">
<title>G</title>
<polygon fill="white" stroke="none" points="-4,4 -4,-52 83,-52 83,4 -4,4"/>
<!-- node4605642560 -->
<g id="node1" class="node">
<title>node4605642560</title>
<polygon fill="none" stroke="black" stroke-width="0.5" points="79,-48 0,-48 0,0 79,0 79,-48"/>
<polygon fill="#fefecd" stroke="none" points="1.5,-33 1.5,-47 13.5,-47 13.5,-33 1.5,-33"/>
<polyline fill="none" stroke="black" points="13.5,-33 13.5,-47"/>
<text text-anchor="start" x="2.5" y="-37.2" font-family="Helvetica,sans-Serif" font-size="11.00" fill="#444443">0 </text>
<polygon fill="#fefecd" stroke="none" points="13.5,-33 13.5,-47 78.5,-47 78.5,-33 13.5,-33"/>
<text text-anchor="start" x="20" y="-37.2" font-family="Helvetica,sans-Serif" font-size="11.00" fill="#444443"> &#39;Alex&#39;→10</text>
<polygon fill="#fefecd" stroke="none" points="1.5,-31 1.5,-33 78.5,-33 78.5,-31 1.5,-31"/>
<polygon fill="#fefecd" stroke="none" points="1.5,-17 1.5,-31 13.5,-31 13.5,-17 1.5,-17"/>
<polyline fill="none" stroke="black" points="13.5,-17 13.5,-31"/>
<text text-anchor="start" x="2.5" y="-21.2" font-family="Helvetica,sans-Serif" font-size="11.00" fill="#444443">1 </text>
<polygon fill="#fefecd" stroke="none" points="13.5,-17 13.5,-31 78.5,-31 78.5,-17 13.5,-17"/>
<text text-anchor="start" x="20.5" y="-21.2" font-family="Helvetica,sans-Serif" font-size="11.00" fill="#444443"> &#39;Bob&#39;→12</text>
<polygon fill="#fefecd" stroke="none" points="1.5,-15 1.5,-17 78.5,-17 78.5,-15 1.5,-15"/>
<polygon fill="#fefecd" stroke="none" points="1.5,-1 1.5,-15 13.5,-15 13.5,-1 1.5,-1"/>
<polyline fill="none" stroke="black" points="13.5,-1 13.5,-15"/>
<text text-anchor="start" x="2.5" y="-5.2" font-family="Helvetica,sans-Serif" font-size="11.00" fill="#444443">2 </text>
<polygon fill="#fefecd" stroke="none" points="13.5,-1 13.5,-15 78.5,-15 78.5,-1 13.5,-1"/>
<text text-anchor="start" x="14.5" y="-5.2" font-family="Helvetica,sans-Serif" font-size="11.00" fill="#444443"> &#39;Clarke&#39;→13</text>
</g>
</g>
</svg>
