<?xml version="1.0" encoding="UTF-8" standalone="no"?>
<!DOCTYPE svg PUBLIC "-//W3C//DTD SVG 1.1//EN"
 "http://www.w3.org/Graphics/SVG/1.1/DTD/svg11.dtd">
<!-- Generated by graphviz version 7.0.6 (20230106.0513)
 -->
<!-- Title: G Pages: 1 -->
<svg width="203pt" height="53pt"
 viewBox="0.00 0.00 203.00 53.00" xmlns="http://www.w3.org/2000/svg" xmlns:xlink="http://www.w3.org/1999/xlink">
<g id="graph0" class="graph" transform="scale(1 1) rotate(0) translate(4 49)">
<title>G</title>
<polygon fill="white" stroke="none" points="-4,4 -4,-49 199,-49 199,4 -4,4"/>
<!-- node4379378688 -->
<g id="node1" class="node">
<title>node4379378688</title>
<polygon fill="#fefecd" stroke="#444443" stroke-width="0.5" points="74,-39.5 0,-39.5 0,-5.5 74,-5.5 74,-39.5"/>
<polygon fill="#fefecd" stroke="none" points="2,-23.5 2,-37.5 47,-37.5 47,-23.5 2,-23.5"/>
<text text-anchor="start" x="18" y="-27.7" font-family="Helvetica,sans-Serif" font-size="11.00" fill="#444443">&#39;First&#39; </text>
<text text-anchor="start" x="47" y="-26.3" font-family="Helvetica,sans-Serif" font-size="9.00" fill="#444443">→</text>
<polygon fill="#fefecd" stroke="none" points="57,-23.5 57,-37.5 72,-37.5 72,-23.5 57,-23.5"/>
<text text-anchor="start" x="58" y="-27.7" font-family="Helvetica,sans-Serif" font-size="11.00" fill="#444443"> &#160;&#160;&#160;</text>
<polygon fill="#fefecd" stroke="none" points="2,-21.5 2,-23.5 72,-23.5 72,-21.5 2,-21.5"/>
<polygon fill="#fefecd" stroke="none" points="2,-7.5 2,-21.5 47,-21.5 47,-7.5 2,-7.5"/>
<text text-anchor="start" x="2" y="-11.7" font-family="Helvetica,sans-Serif" font-size="11.00" fill="#444443">&#39;Second&#39; </text>
<text text-anchor="start" x="47" y="-10.3" font-family="Helvetica,sans-Serif" font-size="9.00" fill="#444443">→</text>
<polygon fill="#fefecd" stroke="none" points="57,-7.5 57,-21.5 72,-21.5 72,-7.5 57,-7.5"/>
<text text-anchor="start" x="58" y="-11.7" font-family="Helvetica,sans-Serif" font-size="11.00" fill="#444443"> &#160;&#160;&#160;</text>
</g>
<!-- node4602460144 -->
<g id="node2" class="node">
<title>node4602460144</title>
<polygon fill="none" stroke="black" stroke-width="0.5" points="195,-45 96,-45 96,-26 195,-26 195,-45"/>
<polygon fill="#fefecd" stroke="none" points="97.5,-26.5 97.5,-43.5 112.5,-43.5 112.5,-26.5 97.5,-26.5"/>
<text text-anchor="start" x="100.5" y="-32.5" font-family="Helvetica,sans-Serif" font-size="10.00" fill="#444443">1.</text>
<polygon fill="#fefecd" stroke="none" points="112.5,-26.5 112.5,-43.5 127.5,-43.5 127.5,-26.5 112.5,-26.5"/>
<text text-anchor="start" x="115.5" y="-32.5" font-family="Helvetica,sans-Serif" font-size="10.00" fill="#444443">3.</text>
<polygon fill="#fefecd" stroke="none" points="127.5,-26.5 127.5,-43.5 142.5,-43.5 142.5,-26.5 127.5,-26.5"/>
<text text-anchor="start" x="130.5" y="-32.5" font-family="Helvetica,sans-Serif" font-size="10.00" fill="#444443">5.</text>
<polygon fill="#fefecd" stroke="none" points="142.5,-26.5 142.5,-43.5 164.5,-43.5 164.5,-26.5 142.5,-26.5"/>
<text text-anchor="start" x="145.5" y="-32.5" font-family="Helvetica,sans-Serif" font-size="10.00" fill="#444443">nan</text>
<polygon fill="#fefecd" stroke="none" points="164.5,-26.5 164.5,-43.5 179.5,-43.5 179.5,-26.5 164.5,-26.5"/>
<text text-anchor="start" x="167.5" y="-32.5" font-family="Helvetica,sans-Serif" font-size="10.00" fill="#444443">6.</text>
<polygon fill="#fefecd" stroke="none" points="179.5,-26.5 179.5,-43.5 194.5,-43.5 194.5,-26.5 179.5,-26.5"/>
<text text-anchor="start" x="182.5" y="-32.5" font-family="Helvetica,sans-Serif" font-size="10.00" fill="#444443">8.</text>
</g>
<!-- node4379378688&#45;&gt;node4602460144 -->
<g id="edge1" class="edge">
<title>node4379378688:c&#45;&gt;node4602460144</title>
<path fill="none" stroke="#444443" stroke-width="0.5" d="M69.39,-30.72C73.77,-30.99 81.98,-31.52 91.41,-32.12"/>
<ellipse fill="#444443" stroke="#444443" stroke-width="0.5" cx="67.85" cy="-30.62" rx="1.6" ry="1.6"/>
<polygon fill="#444443" stroke="#444443" stroke-width="0.5" points="91.29,-33.51 95.37,-32.37 91.47,-30.72 91.29,-33.51"/>
</g>
<!-- node4605463232 -->
<g id="node3" class="node">
<title>node4605463232</title>
<polygon fill="none" stroke="black" stroke-width="0.5" points="182.5,-19 108.5,-19 108.5,0 182.5,0 182.5,-19"/>
<polygon fill="#fefecd" stroke="none" points="109.5,-0.5 109.5,-17.5 121.5,-17.5 121.5,-0.5 109.5,-0.5"/>
<text text-anchor="start" x="112.5" y="-6.5" font-family="Helvetica,sans-Serif" font-size="10.00" fill="#444443">4</text>
<polygon fill="#fefecd" stroke="none" points="121.5,-0.5 121.5,-17.5 133.5,-17.5 133.5,-0.5 121.5,-0.5"/>
<text text-anchor="start" x="124.5" y="-6.5" font-family="Helvetica,sans-Serif" font-size="10.00" fill="#444443">7</text>
<polygon fill="#fefecd" stroke="none" points="133.5,-0.5 133.5,-17.5 145.5,-17.5 145.5,-0.5 133.5,-0.5"/>
<text text-anchor="start" x="136.5" y="-6.5" font-family="Helvetica,sans-Serif" font-size="10.00" fill="#444443">5</text>
<polygon fill="#fefecd" stroke="none" points="145.5,-0.5 145.5,-17.5 157.5,-17.5 157.5,-0.5 145.5,-0.5"/>
<text text-anchor="start" x="148.5" y="-6.5" font-family="Helvetica,sans-Serif" font-size="10.00" fill="#444443">2</text>
<polygon fill="#fefecd" stroke="none" points="157.5,-0.5 157.5,-17.5 169.5,-17.5 169.5,-0.5 157.5,-0.5"/>
<text text-anchor="start" x="160.5" y="-6.5" font-family="Helvetica,sans-Serif" font-size="10.00" fill="#444443">3</text>
<polygon fill="#fefecd" stroke="none" points="169.5,-0.5 169.5,-17.5 181.5,-17.5 181.5,-0.5 169.5,-0.5"/>
<text text-anchor="start" x="172.5" y="-6.5" font-family="Helvetica,sans-Serif" font-size="10.00" fill="#444443">6</text>
</g>
<!-- node4379378688&#45;&gt;node4605463232 -->
<g id="edge2" class="edge">
<title>node4379378688:c&#45;&gt;node4605463232</title>
<path fill="none" stroke="#444443" stroke-width="0.5" d="M69.35,-14.29C75.66,-13.88 89.97,-12.97 104.44,-12.05"/>
<ellipse fill="#444443" stroke="#444443" stroke-width="0.5" cx="67.85" cy="-14.38" rx="1.6" ry="1.6"/>
<polygon fill="#444443" stroke="#444443" stroke-width="0.5" points="104.27,-13.47 108.17,-11.81 104.09,-10.67 104.27,-13.47"/>
</g>
</g>
</svg>
