<?xml version="1.0" encoding="UTF-8" standalone="no"?>
<!DOCTYPE svg PUBLIC "-//W3C//DTD SVG 1.1//EN"
 "http://www.w3.org/Graphics/SVG/1.1/DTD/svg11.dtd">
<!-- Generated by graphviz version 7.0.6 (20230106.0513)
 -->
<!-- Title: G Pages: 1 -->
<svg width="72pt" height="43pt"
 viewBox="0.00 0.00 72.00 43.00" xmlns="http://www.w3.org/2000/svg" xmlns:xlink="http://www.w3.org/1999/xlink">
<g id="graph0" class="graph" transform="scale(1 1) rotate(0) translate(4 39)">
<title>G</title>
<polygon fill="white" stroke="none" points="-4,4 -4,-39 68,-39 68,4 -4,4"/>
<!-- node4605657808 -->
<g id="node1" class="node">
<title>node4605657808</title>
<polygon fill="#fefecd" stroke="#444443" stroke-width="0.5" points="64,-35 0,-35 0,0 64,0 64,-35"/>
<polygon fill="#fbfeb0" stroke="none" points="12,-18.5 12,-30.5 22,-30.5 22,-18.5 12,-18.5"/>
<polyline fill="none" stroke="#444443" points="12,-18.5 22,-18.5 22,-30.5"/>
<text text-anchor="start" x="14" y="-22.3" font-family="Helvetica,sans-Serif" font-size="9.00" fill="#444443">0</text>
<polygon fill="#fbfeb0" stroke="none" points="22,-18.5 22,-30.5 32,-30.5 32,-18.5 22,-18.5"/>
<polyline fill="none" stroke="#444443" points="22,-18.5 32,-18.5 32,-30.5"/>
<text text-anchor="start" x="24" y="-22.3" font-family="Helvetica,sans-Serif" font-size="9.00" fill="#444443">1</text>
<polygon fill="#fbfeb0" stroke="none" points="32,-18.5 32,-30.5 42,-30.5 42,-18.5 32,-18.5"/>
<polyline fill="none" stroke="#444443" points="32,-18.5 42,-18.5 42,-30.5"/>
<text text-anchor="start" x="34" y="-22.3" font-family="Helvetica,sans-Serif" font-size="9.00" fill="#444443">2</text>
<polygon fill="#fbfeb0" stroke="none" points="42,-18.5 42,-30.5 52,-30.5 52,-18.5 42,-18.5"/>
<polyline fill="none" stroke="#444443" points="42,-18.5 52,-18.5"/>
<text text-anchor="start" x="44" y="-22.3" font-family="Helvetica,sans-Serif" font-size="9.00" fill="#444443">3</text>
<text text-anchor="start" x="8" y="-7.3" font-family="Helvetica,sans-Serif" font-size="14.00" fill="#444443">&#39;</text>
<polygon fill="#fbfeb0" stroke="none" points="12,-3.5 12,-18.5 22,-18.5 22,-3.5 12,-3.5"/>
<text text-anchor="start" x="12" y="-8.2" font-family="Monaco" font-size="11.00" fill="#444443">우</text>
<polygon fill="#fbfeb0" stroke="none" points="22,-3.5 22,-18.5 32,-18.5 32,-3.5 22,-3.5"/>
<text text-anchor="start" x="22" y="-8.2" font-family="Monaco" font-size="11.00" fill="#444443">리</text>
<polygon fill="#fbfeb0" stroke="none" points="32,-3.5 32,-18.5 42,-18.5 42,-3.5 32,-3.5"/>
<text text-anchor="start" x="32" y="-8.2" font-family="Monaco" font-size="11.00" fill="#444443">나</text>
<polygon fill="#fbfeb0" stroke="none" points="42,-3.5 42,-18.5 52,-18.5 52,-3.5 42,-3.5"/>
<text text-anchor="start" x="42" y="-8.2" font-family="Monaco" font-size="11.00" fill="#444443">라</text>
<text text-anchor="start" x="52" y="-7.3" font-family="Helvetica,sans-Serif" font-size="14.00" fill="#444443">&#39;</text>
</g>
</g>
</svg>
