<?xml version="1.0" encoding="UTF-8" standalone="no"?>
<!DOCTYPE svg PUBLIC "-//W3C//DTD SVG 1.1//EN"
 "http://www.w3.org/Graphics/SVG/1.1/DTD/svg11.dtd">
<!-- Generated by graphviz version 7.0.6 (20230106.0513)
 -->
<!-- Title: G Pages: 1 -->
<svg width="88pt" height="40pt"
 viewBox="0.00 0.00 88.00 40.00" xmlns="http://www.w3.org/2000/svg" xmlns:xlink="http://www.w3.org/1999/xlink">
<g id="graph0" class="graph" transform="scale(1 1) rotate(0) translate(4 36)">
<title>G</title>
<polygon fill="white" stroke="none" points="-4,4 -4,-36 84,-36 84,4 -4,4"/>
<!-- node4379378688 -->
<g id="node1" class="node">
<title>node4379378688</title>
<polygon fill="none" stroke="black" stroke-width="0.5" points="80,-32 0,-32 0,0 80,0 80,-32"/>
<polygon fill="#fefecd" stroke="none" points="1,-19 1,-31 33,-31 33,-19 1,-19"/>
<polyline fill="none" stroke="black" points="1,-19 33,-19 33,-31"/>
<text text-anchor="start" x="14" y="-22.8" font-family="Helvetica,sans-Serif" font-size="9.00" fill="#444443">0</text>
<polygon fill="#fefecd" stroke="none" points="33,-19 33,-31 79,-31 79,-19 33,-19"/>
<polyline fill="none" stroke="black" points="33,-19 79,-19"/>
<text text-anchor="start" x="53" y="-22.8" font-family="Helvetica,sans-Serif" font-size="9.00" fill="#444443">1</text>
<polygon fill="#fefecd" stroke="none" points="1,-1 1,-19 33,-19 33,-1 1,-1"/>
<polyline fill="none" stroke="black" points="33,-1 33,-19"/>
<text text-anchor="start" x="4" y="-7.2" font-family="Helvetica,sans-Serif" font-size="11.00" fill="#444443">&#39;First&#39;</text>
<polygon fill="#fefecd" stroke="none" points="33,-1 33,-19 79,-19 79,-1 33,-1"/>
<text text-anchor="start" x="35" y="-7.2" font-family="Helvetica,sans-Serif" font-size="11.00" fill="#444443">&#39;Second&#39;</text>
</g>
</g>
</svg>
