<?xml version="1.0" encoding="UTF-8" standalone="no"?>
<!DOCTYPE svg PUBLIC "-//W3C//DTD SVG 1.1//EN"
 "http://www.w3.org/Graphics/SVG/1.1/DTD/svg11.dtd">
<!-- Generated by graphviz version 7.0.6 (20230106.0513)
 -->
<!-- Title: G Pages: 1 -->
<svg width="134pt" height="40pt"
 viewBox="0.00 0.00 134.00 40.00" xmlns="http://www.w3.org/2000/svg" xmlns:xlink="http://www.w3.org/1999/xlink">
<g id="graph0" class="graph" transform="scale(1 1) rotate(0) translate(4 36)">
<title>G</title>
<polygon fill="white" stroke="none" points="-4,4 -4,-36 130,-36 130,4 -4,4"/>
<!-- node4378425936 -->
<g id="node1" class="node">
<title>node4378425936</title>
<polygon fill="none" stroke="black" stroke-width="0.5" points="126,-32 0,-32 0,0 126,0 126,-32"/>
<polygon fill="#fefecd" stroke="none" points="1,-19 1,-31 64,-31 64,-19 1,-19"/>
<polyline fill="none" stroke="black" points="1,-19 64,-19 64,-31"/>
<text text-anchor="start" x="29.5" y="-22.8" font-family="Helvetica,sans-Serif" font-size="9.00" fill="#444443">0</text>
<polygon fill="#fefecd" stroke="none" points="64,-19 64,-31 125,-31 125,-19 64,-19"/>
<polyline fill="none" stroke="black" points="64,-19 125,-19"/>
<text text-anchor="start" x="91.5" y="-22.8" font-family="Helvetica,sans-Serif" font-size="9.00" fill="#444443">1</text>
<polygon fill="#fefecd" stroke="none" points="1,-1 1,-19 64,-19 64,-1 1,-1"/>
<polyline fill="none" stroke="black" points="64,-1 64,-19"/>
<text text-anchor="start" x="4" y="-7.2" font-family="Helvetica,sans-Serif" font-size="11.00" fill="#444443">array([1, 2])</text>
<polygon fill="#fefecd" stroke="none" points="64,-1 64,-19 125,-19 125,-1 64,-1"/>
<text text-anchor="start" x="66" y="-7.2" font-family="Helvetica,sans-Serif" font-size="11.00" fill="#444443">array([3, 4])</text>
</g>
</g>
</svg>
